<?xml version="1.0" standalone="no"?>
<!DOCTYPE svg PUBLIC "-//W3C//DTD SVG 1.1//EN" "http://www.w3.org/Graphics/SVG/1.1/DTD/svg11.dtd" >
<!--
2013-9-30: Created.
-->
<svg>
<metadata>
Created by iconfont
</metadata>
<defs>

<font id="iconfont" horiz-adv-x="1024" >
  <font-face
    font-family="iconfont"
    font-weight="500"
    font-stretch="normal"
    units-per-em="1024"
    ascent="896"
    descent="-128"
  />
    <missing-glyph />
    
    <glyph glyph-name="x" unicode="x" horiz-adv-x="1001"
d="M281 543q-27 -1 -53 -1h-83q-18 0 -36.5 -6t-32.5 -18.5t-23 -32t-9 -45.5v-76h912v41q0 16 -0.5 30t-0.5 18q0 13 -5 29t-17 29.5t-31.5 22.5t-49.5 9h-133v-97h-438v97zM955 310v-52q0 -23 0.5 -52t0.5 -58t-10.5 -47.5t-26 -30t-33 -16t-31.5 -4.5q-14 -1 -29.5 -0.5
t-29.5 0.5h-32l-45 128h-439l-44 -128h-29h-34q-20 0 -45 1q-25 0 -41 9.5t-25.5 23t-13.5 29.5t-4 30v167h911zM163 247q-12 0 -21 -8.5t-9 -21.5t9 -21.5t21 -8.5q13 0 22 8.5t9 21.5t-9 21.5t-22 8.5zM316 123q-8 -26 -14 -48q-5 -19 -10.5 -37t-7.5 -25t-3 -15t1 -14.5
t9.5 -10.5t21.5 -4h37h67h81h80h64h36q23 0 34 12t2 38q-5 13 -9.5 30.5t-9.5 34.5q-5 19 -11 39h-368zM336 498v228q0 11 2.5 23t10 21.5t20.5 15.5t34 6h188q31 0 51.5 -14.5t20.5 -52.5v-227h-327z" />
    

    
    <glyph glyph-name="bb-shoppingcart" unicode="&#58880;" d="M347.136 112.63999999999999q19.456 0 36.864-7.168t30.72-19.968 20.48-30.208 7.168-36.864-7.168-36.864-20.48-30.208-30.72-20.48-36.864-7.68q-20.48 0-37.376 7.68t-30.208 20.48-20.48 30.208-7.168 36.864 7.168 36.864 20.48 30.208 30.208 19.968 37.376 7.168zM773.12 110.59199999999998q19.456 0 37.376-7.168t30.72-19.968 20.48-30.208 7.68-36.864-7.68-36.864-20.48-30.208-30.72-20.48-37.376-7.68-36.864 7.68-30.208 20.48-20.48 30.208-7.68 36.864 7.68 36.864 20.48 30.208 30.208 19.968 36.864 7.168zM945.152 692.2239999999999q28.672 0 44.544-7.68t22.528-18.944 6.144-24.064-3.584-22.016-12.8-37.888-22.016-62.976-24.064-68.096-17.92-53.248q-13.312-40.96-33.792-56.832t-50.176-15.872l-34.816 0-66.56 0-87.04 0-95.232 0-253.952 0 15.36-92.16 516.096 0q49.152 0 49.152-41.984 0-20.48-9.728-35.328t-38.4-14.848l-49.152 0-95.232 0-117.76 0-119.808 0-98.304 0-56.32 0q-20.48 0-34.304 9.216t-23.04 24.064-14.848 32.256-8.704 32.768q-1.024 6.144-5.632 29.696t-11.264 58.88-14.848 78.848-16.384 87.552q-19.456 103.424-44.032 230.4l-76.8 0q-15.36 0-25.6 7.68t-16.896 18.432-9.216 23.04-2.56 22.528q0 20.48 13.824 33.792t37.376 13.312l22.528 0 20.48 0 25.6 0 34.816 0q20.48 0 32.768-6.144t19.456-15.36 10.24-19.456 5.12-17.408q2.048-8.192 4.096-23.04t4.096-30.208q3.072-18.432 6.144-38.912l700.416 0z"  horiz-adv-x="1024" />

    
    <glyph glyph-name="bb-back-b" unicode="&#58881;" d="M711.616 885.408l43.968-51.168c12.128-14.144 12.128-37.024 0-51.2L414.016 385.6l343.456-399.776c12.256-14.208 12.256-37.344 0-51.52l-44.32-51.584c-12.256-14.24-32.064-14.24-44.32 0L269.984 346.88C260.16 358.24 256.8 371.456 257.728 384c-2.208 18.112 5.728 31.072 14.112 40.832L667.616 885.408C679.776 899.52 699.456 899.52 711.616 885.408z"  horiz-adv-x="1024" />

    
    <glyph glyph-name="bb-400" unicode="&#58883;" d="M513.397 125.98599999999999c-35.971 0.215-71.942 0.327-107.913 0.698-13.745 0.141-27.489 0.726-41.222 1.363-11.522 0.532-23.025 1.45-34.508 2.629-10.389 1.07-20.685 2.669-30.912 4.704-9.41 1.876-18.538 4.765-27.276 8.779-9.618 4.421-18.028 10.427-24.545 18.895-4.544 5.905-7.725 12.513-10.081 19.538-2.822 8.427-4.238 17.132-5.068 25.956-1.019 10.777-1.15 21.583-0.699 32.379 0.246 5.873 1.009 11.737 1.743 17.579 1.456 11.59 3.994 22.975 6.939 34.262 4.095 15.682 9.12 31.067 15.099 46.145 4.798 12.098 9.884 24.063 15.6 35.755 7.116 14.561 14.813 28.807 23.222 42.669 12.048 19.866 25.372 38.833 40.119 56.785 13.665 16.634 28.571 32.075 44.828 46.18 11.884 10.315 24.532 19.637 37.994 27.795 10.929 6.622 22.355 12.285 34.265 16.985 6.293 2.482 12.704 4.571 19.206 6.335 7.456 2.023 15.036 3.518 22.721 4.501 11.868 1.511 23.754 1.713 35.641 0.639 7.946-0.717 15.813-2.036 23.573-3.947 8.111-1.995 16.054-4.489 23.841-7.514 11.934-4.637 23.371-10.301 34.271-16.964 11.315-6.913 22.1-14.606 32.348-23.067 17.571-14.502 33.491-30.638 48.13-48.059 14.313-17.037 27.244-35.075 39.042-53.942 8.335-13.329 15.961-27.052 23.082-41.065 7.013-13.795 13.216-27.946 18.954-42.315 8.21-20.565 14.641-41.665 19.261-63.311 1.947-9.123 3.239-18.354 4.22-27.647 1.179-11.162 0.932-22.324 0.406-33.472-0.511-10.927-1.983-21.753-5.425-32.22-3.274-9.945-8.177-18.882-15.787-26.22-5.546-5.346-11.917-9.445-18.893-12.61-11.359-5.153-23.259-8.489-35.587-10.336-5.581-0.835-11.13-1.935-16.735-2.525-10.128-1.062-20.275-2.043-30.434-2.689-38.251-2.423-76.56-2.429-114.863-2.443-14.854-0.003-29.711 0-44.565 0 0-0.076 0-0.154 0-0.234zM577.979 314.70899999999995c0 1.598 0.017 3.189-0.001 4.784-0.135 14.023-1.373 27.934-4.441 41.641-2.317 10.372-5.937 20.24-11.652 29.266-8.261 13.05-19.863 21.568-34.837 25.31-11.883 2.967-23.835 2.897-35.703-0.171-11.359-2.938-20.991-8.75-28.654-17.717-4.91-5.747-8.666-12.186-11.535-19.154-5.186-12.602-7.664-25.835-8.932-39.325-0.921-9.778-1.053-19.58-0.932-29.404 0.135-11.062 0.754-22.067 2.461-33.007 1.478-9.488 3.584-18.83 7.537-27.609 9.381-20.812 25.333-33.251 47.964-36.876 5.1-0.815 10.257-0.869 15.415-0.566 9.065 0.531 17.692 2.679 25.751 6.93 10.673 5.628 18.395 14.13 24.057 24.646 5.473 10.162 8.633 21.091 10.566 32.396 2.205 12.85 3.053 25.821 2.933 38.848zM732.267 314.663c-0.07 9.449-0.394 18.876-1.485 28.285-1.098 9.411-2.764 18.688-5.594 27.728-2.58 8.241-6.169 16.007-11.277 23.042-8.035 11.056-18.659 18.352-31.834 21.805-11.598 3.041-23.307 3.127-34.989 0.381-13.54-3.182-24.58-10.251-32.851-21.498-6.414-8.723-10.538-18.522-13.296-28.929-3.252-12.274-4.74-24.813-5.239-37.466-0.24-6.004-0.112-12.017-0.141-18.026-0.058-12.3 0.89-24.518 3.03-36.63 1.778-10.073 4.368-19.927 9.337-28.949 9.799-17.793 24.73-28.518 44.82-31.833 8.177-1.348 16.405-1.151 24.551 0.306 11.129 1.993 21.022 6.646 29.299 14.449 6.246 5.884 10.879 12.929 14.444 20.704 4.535 9.898 7.129 20.357 8.775 31.056 1.82 11.781 2.58 23.655 2.45 35.585zM407.093 295.95500000000004c-0.672 1.946-0.463 3.55-0.463 5.123-0.006 35.478-0.005 70.958-0.005 106.437 0 1.105-0.048 2.211 0.003 3.315 0.07 1.443-0.374 2.644-1.437 3.628-0.627 0.582-1.287 1.151-1.824 1.819-1.022 1.27-2.334 1.632-3.903 1.627-9.823-0.031-19.641-0.042-29.461 0.005-1.657 0.005-2.835-0.54-3.649-1.964-0.305-0.531-0.686-1.014-1.037-1.518-13.181-18.933-26.366-37.867-39.542-56.811-14.508-20.854-28.989-41.723-43.533-62.55-1.317-1.885-2.046-3.749-2.017-6.105 0.109-9.082 0.044-18.17 0.045-27.251 0-0.614-0.101-1.257 0.045-1.834 0.203-0.803 0.432-1.683 0.928-2.315 2.77-3.513 3.517-3.827 8.113-3.827 21.85-0.001 43.706 0 65.555-0.001 1.105 0 2.215 0.048 3.314-0.033 0.688-0.051 1.364-0.309 2.27-0.527 0-1.472 0-2.812 0-4.149 0-8.841 0.048-17.677-0.031-26.517-0.019-2.002 0.479-3.597 2.043-4.846 0.38-0.305 0.753-0.643 1.054-1.029 0.99-1.277 2.283-1.71 3.87-1.705 10.803 0.029 21.607 0.027 32.41 0.003 1.456-0.002 2.528 0.545 3.555 1.575 3.706 3.721 3.179 2.899 3.243 7.663 0.004 0.614 0 1.228 0 1.841 0 7.857-0.018 15.714 0.019 23.571 0.003 1.309-0.353 2.717 0.815 4.078 1.057 0.021 2.273 0.066 3.492 0.07 4.295 0.006 8.594-0.017 12.89 0.022 0.839 0.004 1.908-0.048 2.474 0.412 2.335 1.901 4.755 3.598 4.657 7.343-0.237 8.831-0.127 17.675-0.039 26.514 0.021 2.119-0.458 3.84-2.143 5.167-0.381 0.304-0.724 0.667-1.04 1.04-1.029 1.21-2.306 1.658-3.906 1.633-4.294-0.07-8.594-0.027-12.89-0.018-1.218 0.004-2.436 0.071-3.857 0.115zM178.82 474.743c-0.085 18.932 2.304 33.507 6.967 47.756 4.079 12.463 9.802 24.086 17.076 34.947 5.476 8.173 11.762 15.696 18.659 22.74 9.323 9.522 19.697 17.753 30.747 25.116 6.839 4.555 13.994 8.624 21.292 12.441 12.54 6.551 25.546 11.948 38.866 16.672 13.434 4.765 27.088 8.719 40.966 11.949 16.63 3.871 33.385 7.024 50.323 9.194 8.524 1.09 17.038 2.25 25.584 3.143 7.321 0.77 14.674 1.259 22.017 1.782 6.612 0.473 13.234 0.821 19.849 1.223 0.733 0.045 1.472 0.105 2.207 0.125 20.007 0.485 40.015 1.218 60.03 0.511 11.411-0.403 22.828-0.687 34.231-1.264 8.086-0.411 16.163-1.147 24.23-1.883 7.698-0.704 15.398-1.458 23.069-2.443 11.81-1.509 23.571-3.333 35.296-5.459 10.396-1.883 20.684-4.193 30.926-6.707 12.521-3.069 24.793-6.998 36.918-11.394 8.548-3.093 16.925-6.589 25.145-10.442 9.341-4.375 18.397-9.329 27.108-14.853 7.465-4.734 14.607-9.945 21.378-15.652 12.755-10.754 23.846-22.954 32.822-37.074 4.956-7.803 9.191-15.962 12.51-24.561 3.945-10.217 6.724-20.766 8.266-31.639 1.245-8.783 1.814-17.594 1.332-26.447-0.489-8.963-1.707-17.834-4.075-26.517-1.858-6.814-5.737-12.439-10.56-17.445-5.011-5.205-10.891-9.118-17.746-11.523-8.64-3.037-17.347-3.211-26.032-0.395-10.301 3.346-18.269 9.879-24.373 18.713-2.511 3.629-4.811 7.409-7.111 11.181-9.662 15.862-20.532 30.851-32.468 45.076-11.617 13.852-24.178 26.775-37.661 38.82-12.015 10.737-24.74 20.556-38.172 29.43-9.42 6.226-19.25 11.771-29.322 16.927-16.135 8.266-32.976 14.543-50.5 19.111-11.193 2.917-22.53 5.019-34.031 6.117-11.868 1.134-23.771 1.364-35.686 0.608-7.85-0.499-15.654-1.309-23.418-2.589-13.961-2.304-27.595-5.854-40.966-10.458-10.935-3.765-21.392-8.594-31.692-13.827-11.957-6.076-23.307-13.106-34.275-20.803-14.807-10.391-28.545-22.05-41.485-34.673-18.78-18.317-35.514-38.363-50.464-59.899-4.829-6.956-9.55-13.998-14.016-21.187-2.99-4.817-6.734-8.75-11.473-11.724-11.504-7.216-23.945-9.917-37.358-7.22-7.008 1.41-13.115 4.721-18.462 9.45-3.335 2.948-6.031 6.447-8.591 10.057-1.362 1.918-2.221 4.075-2.983 6.298-3.619 10.585-4.911 21.511-4.901 28.684zM528.713 315.17100000000005c0.268-10.063 0.097-20.117-0.812-30.15-0.564-6.237-1.184-12.469-3.051-18.478-0.757-2.445-1.741-4.853-2.891-7.141-4.054-8.075-14.745-9.433-21.213-4.405-1.588 1.234-2.659 2.88-3.555 4.637-2.763 5.411-4.332 11.181-5.171 17.185-1.191 8.524-1.662 17.095-1.695 25.686-0.044 10.796 0.017 21.594 0.259 32.388 0.17 7.483 0.911 14.94 2.273 22.313 0.85 4.601 2.253 9.028 4.501 13.177 4.513 8.327 15.029 8.39 20.118 4.726 1.956-1.406 3.363-3.189 4.467-5.28 2.255-4.27 3.671-8.839 4.547-13.555 1.455-7.862 1.926-15.827 2.19-23.798 0.192-5.759 0.037-11.532 0.037-17.298zM683.163 315.19399999999996c0.187-9.451 0.018-18.893-0.799-28.311-0.581-6.725-1.117-13.468-3.15-19.953-0.769-2.446-1.694-4.875-2.814-7.18-4.246-8.746-14.951-9.404-20.78-5.201-1.754 1.264-3.006 2.873-3.991 4.726-2.678 5.037-4.208 10.45-5.076 16.061-1.11 7.165-1.642 14.382-1.753 21.628-0.142 9.199-0.347 18.402-0.219 27.6 0.151 10.916 0.586 21.831 2.591 32.609 0.855 4.602 2.195 9.03 4.421 13.198 4.308 8.075 15.223 8.817 20.683 4.265 1.201-1.003 2.396-2.201 3.103-3.566 1.457-2.819 2.759-5.749 3.815-8.742 2.183-6.192 2.645-12.703 3.188-19.186 0.779-9.3 0.972-18.619 0.78-27.945zM360.115 339.951c0.481-4.155 0.463-40.377 0.051-43.637-0.474-0.132-1.03-0.423-1.587-0.426-8.953-0.022-17.902-0.007-26.857 0.005-0.326 0-0.654 0.193-1.125 0.345 0.002 1.25 0.831 2.047 1.421 2.917 5.523 8.103 11.07 16.194 16.608 24.289 2.836 4.148 5.657 8.306 8.505 12.447 0.82 1.188 1.71 2.334 2.98 4.058z"  horiz-adv-x="1024" />

    
    <glyph glyph-name="bb-view-a" unicode="&#59315;" d="M478.944 410.304c0-15.136 14.4-27.488 32-27.488l56.128 0c17.6 0 32 12.384 32 27.488s-14.4 27.488-32 27.488l-56.128 0C493.344 437.792 478.944 425.44 478.944 410.304zM761.952 508.032c0 15.136-14.4 27.488-32 27.488l-219.008 0c-17.6 0-32-12.384-32-27.488s14.4-27.488 32-27.488l219.008 0C747.552 480.544 761.952 492.928 761.952 508.032zM506.464-113.856c-6.432 5.952-12.416 11.552-13.312 12.448s-16.064 1.664-33.664 1.664L150.464-99.744c-17.6 0-32 14.4-32 32L118.464 660.288c0 17.6 14.4 32 32 32l630.304 0c17.6 0 32-14.4 32-32l0-295.296c0-17.6 1.312-32.704 2.944-33.568s7.424-4.224 12.928-7.488 25.28-17.056 30.176-20.64 8.896 7.904 8.896 25.504L867.712 715.296c0 17.6-14.4 32-32 32L95.456 747.296c-17.6 0-32-14.4-32-32l0-837.984c0-17.6 14.4-32 32-32L528.32-154.688c17.6 0 25.568 4.576 17.728 10.144S512.896-119.808 506.464-113.856zM408.384 130.592c6.112-0.48 14.56 13.152 18.72 30.24l10.688 31.52c7.168 16.064 13.344 29.792 13.728 30.496s0.704 15.68 0.704 33.28l0 3.072c0 17.6-14.4 32-32 32L201.216 291.2c-17.6 0-32-14.4-32-32l0-219.008c0-17.6 14.4-32 32-32l194.88 0c17.6 0 31.2 3.136 30.24 6.944s-2.784 11.68-4.064 17.44-3.968 23.04-4.32 25.696-15.04 4.864-32.64 4.864L256.192 63.136c-17.6 0-32 14.4-32 32l0 109.056c0 17.6 14.4 32 32 32l109.056 0c17.6 0 32-14.4 32-32l0-40.768C397.248 145.824 402.272 131.072 408.384 130.592zM761.952 622.048c0 15.136-14.4 27.488-32 27.488l-219.008 0c-17.6 0-32-12.384-32-27.488s14.4-27.488 32-27.488l219.008 0C747.552 594.56 761.952 606.944 761.952 622.048zM452.224 617.536c0 17.6-14.4 32-32 32L201.216 649.536c-17.6 0-32-14.4-32-32l0-219.008c0-17.6 14.4-32 32-32l219.04 0c17.6 0 32 14.4 32 32L452.256 617.536zM256.192 421.504c-17.6 0-32 14.4-32 32L224.192 562.56c0 17.6 14.4 32 32 32l109.056 0c17.6 0 32-14.4 32-32l0-109.056c0-17.6-14.4-32-32-32L256.192 421.504zM870.784-53.792c31.968 40.672 49.472 90.784 49.472 142.368 0.032 61.632-23.968 119.552-67.552 163.168-43.552 43.584-101.536 67.584-163.168 67.584-127.232 0-230.688-103.52-230.688-230.72s103.488-230.72 230.688-230.72c51.52 0 101.696 17.504 142.368 49.504l99.328-99.296 38.88 38.88L870.784-53.792zM865.28 88.64c0.032-44.48-16.672-86.912-46.912-119.52l-9.344-9.28c-32.64-30.272-75.072-46.976-119.488-46.976-96.896 0-175.712 78.88-175.712 175.776s78.848 175.712 175.744 175.712l0.064 0c46.88 0 90.976-18.272 124.192-51.424C847.04 179.648 865.312 135.52 865.28 88.64z"  horiz-adv-x="1024" />

    
    <glyph glyph-name="bb-shoppingcart-b" unicode="&#59061;" d="M353.024 64.19200000000001c-35.36 0-64-28.64-64-64s28.64-64 64-64 64 28.64 64 64S388.416 64.19200000000001 353.024 64.19200000000001L353.024 64.19200000000001zM801.024 64.19200000000001c-35.36 0-64-28.64-64-64s28.64-64 64-64 64 28.64 64 64S836.416 64.19200000000001 801.024 64.19200000000001L801.024 64.19200000000001zM937.312 707.52C920.96 725.984 898.496 736 874.048 736L232.864 736 230.592 749.024C224.992 795.5840000000001 184 832 137.28 832L97.024 832c-17.696 0-32-14.304-32-32s14.304-32 32-32L137.28 768c13.92 0 28.128-12.672 30.016-28.256l30.912-178.496L252.48 179.13599999999997C258.112 132.57600000000002 298.656 96 344.768 96l520.256 0c17.696 0 32 14.304 32 32s-14.304 32-32 32L344.768 160c-13.632 0-27.04 12.608-28.832 27.456l-5.312 37.344 507.712 31.392c46.08 0 86.624 36.512 92.064 81.376l50.432 288.352C964.576 656.736 956 686.432 937.312 707.52z"  horiz-adv-x="1024" />

    
    <glyph glyph-name="bb-message-a" unicode="&#58906;" d="M594.917478 751.601262c0 43.803645-37.123502 79.478146-82.916455 79.478146-45.699832 0-82.918501-35.585473-82.918501-79.478146 0-4.472871 0.38681-8.860808 1.12973-13.133112-114.497731-38.254256-208.430076-155.73083-208.430076-294.718325l0-109.423155c0 0 0-157.590178-40.387849-158.963455-24.082488 0-42.528606-17.792225-42.528606-39.74112 0-22.098297 18.557658-39.737026 41.452087-39.737026l663.36643 0c23.004947 0 41.451064 17.791202 41.451064 39.737026 0 22.103414-18.557658 39.74112-41.451064 39.74112-41.46539 0-41.46539 157.854191-41.46539 157.854191L802.218848 443.736523c0 139.166573-87.828324 256.691243-208.408587 294.828842C594.538855 742.809015 594.917478 747.161137 594.917478 751.601262zM636.377752 56.210465c-0.12382-65.903989-55.286164-119.28885-124.377752-119.28885-68.616774 0-124.254955 53.163827-124.378775 119.28885L636.377752 56.210465z"  horiz-adv-x="1024" />

    
    <glyph glyph-name="bb-collect" unicode="&#59020;" d="M511.089257 854.458885c248.489444 0 449.939549-205.282387 449.939549-458.498482S759.578702-62.53807900000004 511.089257-62.53807900000004 61.148685 142.74328400000002 61.148685 395.960403 262.59879 854.458885 511.089257 854.458885L511.089257 854.458885zM340.693426 340.171796c-1.52575-6.691399-2.215458-13.761422-3.38305-20.74958L317.093938 194.90938700000004c-2.600221-18.587334-7.057743-30.442336 4.524037-47.745421 1.605567-2.379187 2.653433-3.487428 4.616134-5.487991 2.029216-2.081405 3.078105-2.947122 5.359055-4.717442 5.850242-4.501524 14.432711-8.124028 22.418592-8.124028 11.673877 0 17.629519 1.662873 27.048029 7.231705 1.445932 0.864694 2.998287 1.676176 4.524037 2.608407 7.507998 4.663206 15.560394 8.286734 23.14821 12.895705 9.18008 5.596462 18.677385 10.273994 28.003797 15.585977 1.697665 0.973164 2.785439 1.676176 4.562922 2.568499 1.857301 0.918929 2.812045 1.635243 4.576225 2.541893l60.305481 33.592073c6.393617 3.487428 4.484128 3.298116 13.96813-2.311649l51.191916-28.441772c1.565658-0.838088 2.891863-1.702782 4.576225-2.555196l11.514241-6.502088c0.954745-0.540306 1.52575-0.743944 2.493797-1.284249 1.061169-0.567935 1.074472-0.689708 2.095731-1.257643 0.954745-0.554632 1.485841-0.729617 2.453888-1.325182l23.201421-12.841469c1.697665-0.959861 3.038196-1.852184 4.735861-2.812045l18.585287-10.341532c15.414061-8.461719 27.101241-10.017144 43.219337-3.176342 1.857301 0.797156 4.722558 2.568499 6.314823 3.75758 5.850242 4.420683 10.718109 9.827833 13.889335 16.815991 1.061169 2.338255 1.89721 5.082762 2.586918 7.54279 2.122337 7.556093 1.127683 15.19405-0.079818 22.750143l-4.987594 31.4155c-0.451278 2.987031-1.074472 6.732331-1.657756 10.178827-0.556679 3.203972-1.074472 6.907317-1.737574 10.544147-3.078105 17.140379-5.505387 34.68701-8.317433 51.773154-2.281973 13.855566-5.054109 28.022217-6.884804 41.783639-0.491187 3.704368-1.39272 7.05672-1.684362 10.598382 3.236718 2.203178 13.0799 13.112646 16.541745 16.654308l6.03546 6.151094c8.330736 9.638521 17.735943 18.492166 26.649963 27.576055 1.499144 1.541099 2.706645 2.744507 4.112668 4.298909 0.053212 0.067538 0.13303 0.162706 0.198521 0.230244l2.785439 3.095501c8.317433 9.299807 17.987676 18.154475 26.557866 27.251667l2.719948 2.744507c0.079818 0.094144 0.318248 0.352017 0.398066 0.446162l4.03285 4.379751c6.646374 6.745634 22.338774 21.520129 26.464745 27.765367 0.60989 0.918929 1.061169 1.608637 1.657756 2.541893 14.432711 22.926152 3.568269 54.787814-22.033829 63.534012-6.141884 2.095731-32.845059 6.110161-41.653679 7.178493l-70.585615 10.8143c-4.351098 0.648776-9.312086 1.500167-14.034645 2.24411l-28.255531 4.298909c-7.494695 1.297552-6.115278-0.026606-9.458419 6.907317l-20.866237 44.920072c-1.89721 3.75758-3.316535 7.394411-5.213745 11.232832l-10.426467 22.479991c-4.77577 11.382235-11.04966 22.168905-15.706727 33.646308l-5.227048 11.219529c-3.343141 6.974855-6.420223 15.640212-11.18269 21.696138-2.825348 3.568269-4.524037 5.352915-8.211009 8.178263-19.141966 14.70798-45.766346 10.273994-60.132542-8.665357-3.608178-4.745071-16.714683-33.280987-20.50808-41.892109-4.510734-10.246365-12.217253-25.035186-15.945157-34.254152-3.634784-8.975419-8.383948-17.005302-12.005428-25.940812l-19.712971-42.284035c-4.112668-7.988951 0-5.89322-16.821107-8.326643l-53.80544-8.380878c-3.846608-0.635473-6.844895-0.959861-10.532891-1.582031l-43.073005-6.582929c-2.162246-0.311085-3.409656-0.635473-5.359055-0.905626-9.100262-1.270946-28.945239-3.500731-36.32123-6.678096-9.909697-4.285606-17.602913-11.463076-22.511713-21.195741-0.862647-1.717108-1.101077-2.703575-1.804089-4.514827-4.974291-12.706393-2.228761-28.617781 5.571902-39.47199 4.974291-6.92062 17.696034-18.844184 24.382317-25.657356l8.953929-9.543354c1.140986-1.162476 1.977028-2.013867 3.116991-3.176342l22.206768-22.777773c9.803273-11.057847 22.418592-21.898753 31.54546-32.767288 0.649799-0.77055 0.941442-1.068332 1.61887-1.757017 4.204765-4.257977 8.092305-8.232498 12.283768-12.503778C331.181795 349.647611 337.523223 342.335065 340.693426 340.171796L340.693426 340.171796z"  horiz-adv-x="1024" />

    
    <glyph glyph-name="bb-wechat" unicode="&#58969;" d="M951.425526 299.56132C923.055682 299.56132 899.949867 323.232854 899.949867 352.60715600000003 899.949867 381.82124699999997 923.054324 405.492781 951.425526 405.492781 979.798086 405.492781 1002.901185 381.82124699999997 1002.901185 352.60715600000003 1002.901185 323.232854 979.798086 299.56132 951.425526 299.56132M686.641207 299.56132C658.268645 299.56132 635.165546 323.232854 635.165546 352.60715600000003 635.165546 381.82124699999997 658.268645 405.492781 686.641207 405.492781 715.011052 405.492781 738.11415 381.82124699999997 738.11415 352.60715600000003 738.112795 323.232854 715.011052 299.56132 686.641207 299.56132M1187.84 224.204382C1187.84 395.591313 1037.877539 535.914797 847.814506 548.012292 838.922121 548.505362 830.012088 548.847888 821.103415 548.847888 618.50471 548.847888 454.350541 403.476302 454.350541 224.204382 454.350541 197.172509 458.152643 170.99280599999997 465.241033 145.97741399999995 504.664259 4.45647299999996 649.019263-100.45846100000006 821.102057-100.45846100000006 879.664749-100.45846100000006 934.926221-88.35958500000004 983.91918-66.70591200000001L1066.246027-123.94906400000002C1066.246027-123.94906400000002 1088.189899-139.55468100000007 1086.047908-109.50637600000005L1062.783277-19.871107000000052C1139.506741 39.552881999999954 1187.84 126.84572100000003 1187.84 224.204382M259.517573 589.305922C231.131439 589.305922 208.041914 612.960883 208.041914 642.1722090000001 208.041914 671.549274 231.131439 695.219427 259.517573 695.219427 288.050307 695.219427 310.993232 671.547894 310.993232 642.1722090000001 310.993232 612.960883 288.050307 589.305922 259.517573 589.305922M583.689888 695.219427C612.078737 695.219427 635.165546 671.547894 635.165546 642.1722090000001 635.165546 612.960883 612.078737 589.305922 583.689888 589.305922 555.157154 589.305922 532.214229 612.960883 532.214229 642.1722090000001 532.214229 671.549274 555.157154 695.219427 583.689888 695.219427M821.103415 575.87976C829.014393 575.87976 836.763841 575.535854 844.529578 575.191947 814.335373 756.661277 637.808423 896 424.49569 896 190.063033 896 0 727.611544 0 520.143442 0 404.476254 59.063575 301.08472900000004 151.782745 232.087986L120.429315 111.730412C120.429315 111.730412 109.715287 71.78064199999994 150.300455 89.73145099999999L267.265663 170.99004300000001C315.938273 153.69666199999995 368.896223 144.122528 424.494332 144.122528 429.279199 144.122528 433.887603 144.46643400000005 438.510936 144.46643400000005 431.745612 170.154449 428.118614 196.84241399999996 428.118614 224.20161900000005 428.119972 418.081964 604.471818 575.87976 821.103415 575.87976"  horiz-adv-x="1188" />

    
    <glyph glyph-name="bb-downlist" unicode="&#58882;" d="M512 209.428l-278.656 278.656 45.312 45.248 233.344-233.344 233.344 233.344 45.312-45.248z"  horiz-adv-x="1024" />

    
    <glyph glyph-name="bb-mark" unicode="&#59090;" d="M512 896C229.248 896 0 666.752 0 384c0-282.752 229.248-512 512-512 282.752 0 512 229.248 512 512C1024 666.752 794.752 896 512 896zM508.8 83.32799999999997c-36.032 1.024-64.32 25.92-63.168 63.616 1.152 37.696 30.848 61.76 66.88 60.736 37.632-1.088 65.088-26.752 63.936-64.448C575.296 105.53599999999994 546.432 82.24000000000001 508.8 83.32799999999997zM676.16 427.968C666.56 414.848 644.864 398.08 617.664 377.6L587.52 357.568c-14.592-10.944-27.584-23.68-32.384-38.336C552.64 311.48800000000006 551.04 304.70399999999995 550.464 291.264 550.336 288.64 548.608 282.55999999999995 540.16 282.55999999999995L455.04 282.55999999999995c-9.472 0-10.496 5.376-10.432 8 1.344 36.8 2.688 62.4 17.792 79.488 26.048 29.504 85.44 66.24 85.44 66.24 9.088 6.528 16.384 13.696 21.888 21.504 10.048 13.376 18.432 28.096 18.432 44.16 0 18.496-5.632 35.328-16.832 50.496C560.128 567.744 539.648 575.36 509.952 575.36c-29.248 0-49.92-9.344-62.144-28.096C439.424 534.4 433.92 521.28 431.296 507.776c-0.896-17.152-6.208-18.88-17.28-18.88L331.968 488.896c-7.296 0-9.088 4.352-10.752 16.96 6.144 60.416 30.848 103.872 74.112 130.432C425.152 654.72 461.76 664 505.152 664c57.024 0 104.448-13.12 142.208-39.424C685.12 598.336 704 559.424 704 507.84 704 476.224 692.48 449.6 676.16 427.968z"  horiz-adv-x="1024" />

    
    <glyph glyph-name="bb-video" unicode="&#58938;" d="M512 810.666667C276.48 810.666667 85.333333 619.52 85.333333 384c0-235.52 191.146667-426.666667 426.666667-426.666667 235.52 0 426.666667 191.146667 426.666667 426.666667C938.666667 619.52 747.52 810.666667 512 810.666667zM426.666667 192l0 384 256-192L426.666667 192z"  horiz-adv-x="1024" />

    
    <glyph glyph-name="bb-miaopai" unicode="&#59015;" d="M516.475941 585.5851809999999c-123.193787 0-223.062332-99.868545-223.062332-223.062332s99.868545-223.062332 223.062332-223.062332 223.062332 99.868545 223.062332 223.062332S639.669728 585.5851809999999 516.475941 585.5851809999999zM516.475941 211.662957c-83.681888 0-151.519925 67.838038-151.519925 151.519925s67.838038 151.519925 151.519925 151.519925 151.519925-67.838038 151.519925-151.519925S600.158852 211.662957 516.475941 211.662957zM516.475941 439.069223c-41.683355 0-75.473949-33.790594-75.473949-75.473949s33.790594-75.473949 75.473949-75.473949 75.473949 33.790594 75.473949 75.473949S558.159296 439.069223 516.475941 439.069223zM486.410182 324.20617200000004c-5.211698 0-9.435906 4.225231-9.435906 9.435906s4.225231 9.435906 9.435906 9.435906 9.435906-4.225231 9.435906-9.435906S491.62188 324.20617200000004 486.410182 324.20617200000004zM534.505573 359.91137200000003c-11.831466 0-21.422915 9.591449-21.422915 21.422915 0 11.831466 9.591449 21.422915 21.422915 21.422915 11.831466 0 21.422915-9.591449 21.422915-21.422915C555.928488 369.50282100000004 546.337039 359.91137200000003 534.505573 359.91137200000003zM512 830.24746c-246.456135 0-446.24746-199.792349-446.24746-446.24746S265.543865-62.247460000000046 512-62.247460000000046s446.24746 199.792349 446.24746 446.24746S758.456135 830.24746 512 830.24746zM517.161556 102.45469600000001c-143.996578 0-260.731256 116.732631-260.731256 260.72921 0 56.634882 18.062378 109.045555 48.733934 151.802358l-20.936845 19.409049c-8.250918 7.65126-8.754385 20.662599-1.103124 28.91454l19.761066 21.335934c7.65126 8.250918 20.61348 8.742105 28.865421 1.090844l21.277606-19.821441c36.114522 29.240975 81.211627 49.02353 128.283712 55.590086l0 24.679076c0 11.253298 9.597589 21.191648 20.850887 21.191648l29.097712 0c11.253298 0 19.636223-9.939373 19.636223-21.191648l0-24.553209c49.118698-6.457062 93.66117-26.38595 130.047892-55.92266l21.265326 19.338441c8.250918 7.65126 21.262256 7.161097 28.91454-1.090844l19.785625-21.335934c7.65126-8.250918 7.161097-21.262256-1.090844-28.91454l-20.47124-18.983353c30.5549-42.707684 48.542576-95.019097 48.542576-151.536298C777.891789 219.18732699999998 661.158135 102.45469600000001 517.161556 102.45469600000001z"  horiz-adv-x="1024" />

    
    <glyph glyph-name="bb-man" unicode="&#58941;" d="M512 896C229.831111 896 0 666.168889 0 384 0 101.83111099999996 229.831111-128 512-128 794.168889-128 1024 101.83111099999996 1024 384 1024 666.168889 794.168889 896 512 896L512 896zM800.995556 415.857778c0-18.204444-13.653333-31.857778-31.857778-31.857778-18.204444 0-31.857778 13.653333-31.857778 31.857778l0 147.911111L614.4 440.888889l-2.275556 0c38.684444-38.684444 61.44-93.297778 61.44-150.186667 0-125.155556-100.124444-223.004444-223.004444-223.004444-125.155556 0-223.004444 100.124444-223.004444 223.004444 0 125.155556 100.124444 223.004444 223.004444 223.004444 40.96 0 84.195556-13.653333 116.053333-31.857778 0 2.275556 2.275556 6.826667 6.826667 6.826667l120.604444 118.328889-147.911111 0c-18.204444 0-31.857778 13.653333-31.857778 31.857778 0 18.204444 13.653333 31.857778 31.857778 31.857778l223.004444 0c18.204444 0 31.857778-13.653333 31.857778-31.857778L800.995556 415.857778 800.995556 415.857778 800.995556 415.857778zM448.284444 447.715556c-88.746667 0-159.288889-70.542222-159.288889-159.288889 0-88.746667 70.542222-159.288889 159.288889-159.288889 88.746667 0 159.288889 70.542222 159.288889 159.288889C607.573333 377.17333299999996 537.031111 447.715556 448.284444 447.715556L448.284444 447.715556zM448.284444 447.715556"  horiz-adv-x="1024" />

    
    <glyph glyph-name="bb-woman" unicode="&#58942;" d="M673.564444 497.777778c0 91.022222-70.542222 161.564444-161.564444 161.564444-91.022222 0-161.564444-70.542222-161.564444-161.564444 0-91.022222 70.542222-161.564444 161.564444-161.564444C603.022222 336.21333300000003 673.564444 406.755556 673.564444 497.777778L673.564444 497.777778zM673.564444 497.777778M512 896C229.831111 896 0 666.168889 0 384 0 101.83111099999996 229.831111-128 512-128 794.168889-128 1024 101.83111099999996 1024 384 1024 666.168889 794.168889 896 512 896L512 896zM705.422222 206.506667c20.48 0 31.857778-13.653333 31.857778-31.857778 0-20.48-13.653333-31.857778-31.857778-31.857778l-161.564444 0L543.857778 76.79999999999995c0-20.48-13.653333-31.857778-31.857778-31.857778-20.48 0-31.857778 13.653333-31.857778 31.857778l0 63.715556L318.577778 140.51555599999995c-20.48 0-31.857778 13.653333-31.857778 31.857778 0 20.48 13.653333 31.857778 31.857778 31.857778l161.564444 0 0 68.266667c-109.226667 15.928889-193.422222 109.226667-193.422222 223.004444 0 125.155556 100.124444 225.28 225.28 225.28 125.155556 0 225.28-100.124444 225.28-225.28 0-113.777778-84.195556-207.075556-193.422222-223.004444l0-68.266667L705.422222 204.23111100000006 705.422222 206.506667zM705.422222 206.506667"  horiz-adv-x="1024" />

    
    <glyph glyph-name="bb-upsort" unicode="&#58949;" d="M398.09536 769.28512c-13.04064 12.93824-29.3632 19.42016-45.6704 19.42016-6.51776 0-13.04064-3.23584-19.5584-3.23584 0 0 0 0-3.26656 0-9.78432-6.47168-16.3072-12.94848-22.8352-19.42016L42.58304 503.86432c-26.09664-25.88672-26.09664-64.7424 0-87.3984 13.04064-12.93824 29.35296-19.41504 45.66016-19.41504s32.61952 6.47168 45.66016 19.41504L293.72928 575.0784l0-537.3184c0-35.60448 29.3632-61.49632 61.97248-61.49632 32.61952 0 61.96736 29.1328 61.96736 61.49632L417.66912 720.72704C417.664 736.9216 411.14624 756.33664 398.09536 769.28512z"  horiz-adv-x="1024" />

    
    <glyph glyph-name="bb-downsort" unicode="&#58951;" d="M981.92384 348.49792c-13.05088 12.95872-29.35296 19.42016-45.6704 19.42016s-32.60928-6.47168-45.66016-19.42016l-163.07712-161.83296L727.51616 723.96288c0 35.60448-29.35296 61.50144-61.96736 61.50144-32.61952 0-61.97248-29.1328-61.97248-61.50144l0-689.4336c0-35.60448 29.35296-61.51168 61.97248-61.51168 16.3072 0 32.60928 6.48192 45.66016 19.42016l267.44832 265.41568C1008.01536 283.75552000000005 1008.01536 322.60096 981.92384 348.49792z"  horiz-adv-x="1024" />

    
    <glyph glyph-name="bb-database" unicode="&#58911;" d="M624.989377 124.76277100000004c0 0 2.217505-0.543376 12.942777-0.543376 48.435129 0 93.260034 4.0175 134.476761 12.050454 41.215704 8.033977 73.816193 18.919908 97.800443 32.658817 23.985274 13.737886 35.977399 28.641317 35.977399 44.708248l0 59.379389c-27.710109-19.561521-65.550948-34.347273-113.51945-44.360324-47.674812-9.952676-98.918917-14.953573-153.723104-15.013949l0-37.550221C638.944204 133.460874 628.897384 126.66305 624.989377 124.76277100000004zM625.742531 393.380648c8.201799-1.279133 5.387707-0.907673 12.189623-0.907673 48.435129 0 93.260034 4.0175 134.476761 12.050454 41.215704 8.033977 73.816193 18.919908 97.800443 32.658817 23.985274 13.737886 35.977399 28.641317 35.977399 44.708248l0 59.379389c-27.710109-19.561521-65.550948-34.347273-113.51945-44.360324-47.673789-9.952676-98.917894-14.953573-153.72208-15.013949L638.945227 444.688197C638.945227 428.621267 637.933177 403.926842 625.742531 393.380648zM625.703645 259.29581299999995l12.228509-0.949628c48.41057-1.556449 93.260034 4.0175 134.476761 12.050454 41.215704 8.033977 73.816193 18.919908 97.800443 32.658817 23.985274 13.737886 35.977399 28.641317 35.977399 44.708248l0 59.379389c-27.710109-19.561521-65.550948-34.347273-113.51945-44.360324-47.674812-9.952676-98.918917-14.953573-153.723104-15.013949l0-37.550221C638.944204 294.15166899999997 639.836527 268.138202 625.703645 259.29581299999995zM772.409938 538.650219c41.215704 8.033977 73.816193 18.919908 97.800443 32.658817 23.985274 13.737886 35.977399 28.641317 35.977399 44.708248l0 44.709271c0 16.065907-11.992125 30.969339-35.977399 44.708248-23.984251 13.738909-56.58474 24.62484-97.800443 32.657794-41.216727 8.033977-86.041632 12.050454-134.476761 12.050454-48.435129 0-93.260034-4.016477-134.476761-12.050454-41.215704-8.032954-73.816193-18.918885-97.800443-32.657794-23.985274-13.738909-35.977399-28.641317-35.977399-44.708248l0-44.709271c0-13.313214 8.242731-25.827225 24.711821-37.542035 39.438221-1.108241 76.369342-5.003967 110.776989-11.710716 41.215704-8.032954 73.816193-18.918885 97.800443-32.657794 4.110621-2.354628 7.860015-4.744048 11.266601-7.167237 7.804756-0.218988 15.697517-0.339738 23.698748-0.339738C686.368306 526.5997649999999 731.193211 530.616242 772.409938 538.650219zM350.413811 154.21864000000005c55.186903 0 106.765629 5.006014 154.73413 15.020088 47.968501 10.013051 85.809341 24.798802 113.51945 44.360324l0-59.379389c0-16.066931-11.992125-30.970362-35.977399-44.708248-23.984251-13.738909-56.58474-24.62484-97.800443-32.658817-41.216727-8.032954-86.041632-12.050454-134.476761-12.050454s-93.260034 4.0175-134.475737 12.050454c-41.216727 8.033977-73.817216 18.919908-97.801467 32.658817-23.984251 13.737886-35.977399 28.641317-35.977399 44.708248l0 59.379389c27.711132-19.560498 65.549925-34.346249 113.51945-44.360324 47.968501-10.013051 99.547227-15.020088 154.73413-15.020088l0 0L350.413811 154.21864000000005 350.413811 154.21864000000005zM350.413811 288.34542999999996c55.186903 0 106.765629 5.006014 154.73413 15.020088 47.968501 10.013051 85.809341 24.798802 113.51945 44.360324l0-59.379389c0-16.066931-11.992125-30.970362-35.977399-44.708248-23.984251-13.738909-56.58474-24.62484-97.800443-32.658817-41.216727-8.032954-86.041632-12.050454-134.476761-12.050454s-93.260034 4.0175-134.475737 12.050454c-41.216727 8.033977-73.817216 18.919908-97.801467 32.658817-23.984251 13.737886-35.977399 28.641317-35.977399 44.708248l0 59.379389c27.711132-19.560498 65.549925-34.346249 113.51945-44.360324 47.968501-10.013051 99.547227-15.020088 154.73413-15.020088l0 0L350.413811 288.34542999999996 350.413811 288.34542999999996zM350.413811 556.942841c48.435129 0 93.260034-4.016477 134.476761-12.050454 41.215704-8.032954 73.816193-18.918885 97.800443-32.657794 23.985274-13.738909 35.977399-28.64234 35.977399-44.708248l0-44.709271c0-16.066931-11.992125-30.970362-35.977399-44.708248-23.984251-13.738909-56.58474-24.62484-97.800443-32.658817-41.216727-8.032954-86.041632-12.050454-134.476761-12.050454-48.435129 0-93.260034 4.0175-134.476761 12.050454-41.215704 8.033977-73.816193 18.919908-97.800443 32.658817-23.985274 13.737886-35.977399 28.641317-35.977399 44.708248l0 44.709271c0 16.066931 11.992125 30.969339 35.977399 44.708248 23.984251 13.738909 56.58474 24.62484 97.800443 32.657794C257.153778 552.9263639999999 301.978682 556.942841 350.413811 556.942841L350.413811 556.942841 350.413811 556.942841z"  horiz-adv-x="1024" />

    
    <glyph glyph-name="bb-view" unicode="&#58908;" d="M692.5880888888889 820.9066666666668l0 0 0 0ZM1385.8133333333335 442.2542222222222l0 0 0 0 0 0 0 0ZM249.856 558.7626666666667l489.33546666666666 0c17.476266666666668 0 29.127111111111113 11.650844444444441 29.127111111111113 29.127111111111113 0 17.476266666666668-11.650844444444441 29.127111111111113-29.127111111111113 29.127111111111113L249.856 617.016888888889C232.37973333333332 617.016888888889 220.7288888888889 605.3660444444445 220.7288888888889 587.8897777777778 220.7288888888889 570.413511111111 232.37973333333332 558.7626666666667 249.856 558.7626666666667zM249.856 384l407.77955555555553 0c17.476266666666668 0 29.127111111111113 11.650844444444441 29.127111111111113 29.127111111111113C686.7626666666667 430.6033777777777 675.1118222222221 442.2542222222222 657.6355555555556 442.2542222222222l-407.77955555555553 0C232.37973333333332 442.2542222222222 220.7288888888889 430.6033777777777 220.7288888888889 413.1271111111111 220.7288888888889 395.65084444444443 232.37973333333332 384 249.856 384zM861.5253333333334 850.0337777777778L104.22044444444447 850.0337777777778C75.0933333333333 850.0337777777778 45.9662222222222 820.9066666666668 45.9662222222222 791.7795555555556l0-815.5591111111111c0-29.127111111111113 29.127111111111113-58.254222222222225 58.254222222222225-58.254222222222225l407.77955555555553 0c17.476266666666668 0 29.127111111111113 11.650844444444441 29.127111111111113 29.127111111111113 0 17.476266666666668-11.650844444444441 29.127111111111113-29.127111111111113 29.127111111111113L133.34755555555557-23.77955555555559C115.8712888888889-23.77955555555559 104.22044444444447-12.128711111111215 104.22044444444447 5.347555555555573l0 757.3048888888889C104.22044444444447 780.1287111111111 115.8712888888889 791.7795555555556 133.34755555555557 791.7795555555556l699.0506666666666 0C849.8744888888889 791.7795555555556 861.5253333333334 780.1287111111111 861.5253333333334 762.6524444444444L861.5253333333334 384c0-17.476266666666668 11.650844444444441-29.127111111111113 29.127111111111113-29.127111111111113S919.7795555555556 366.5237333333333 919.7795555555556 384L919.7795555555556 791.7795555555556C919.7795555555556 820.9066666666668 890.6524444444444 850.0337777777778 861.5253333333334 850.0337777777778zM873.1761777777776 34.47466666666662c29.127111111111113 29.127111111111113 46.603377777777766 69.90506666666667 46.603377777777766 116.50844444444445 0 99.03217777777779-75.73048888888889 174.76266666666666-174.76266666666666 174.76266666666666s-174.76266666666666-75.73048888888889-174.76266666666666-174.76266666666666 75.73048888888889-174.76266666666666 174.76266666666666-174.76266666666666c29.127111111111113 0 58.254222222222225 5.825422222222221 81.5559111111111 23.301688888888883l93.20675555555553-93.20675555555553c11.650844444444441-11.650844444444441 29.127111111111113-11.650844444444441 40.77795555555555 0 11.650844444444441 11.650844444444441 11.650844444444441 29.127111111111113 0 40.77795555555555L873.1761777777776 34.47466666666662zM745.0168888888888 34.47466666666662c-64.07964444444444 0-116.50844444444445 52.4288-116.50844444444445 116.50844444444445 0 64.07964444444444 52.4288 116.50844444444445 116.50844444444445 116.50844444444445s116.50844444444445-52.4288 116.50844444444445-116.50844444444445C861.5253333333334 86.90346666666665 809.0965333333334 34.47466666666662 745.0168888888888 34.47466666666662z"  horiz-adv-x="1024" />

    
    <glyph glyph-name="bb-qq" unicode="&#58943;" d="M64.490338 307.20000000000005C25.873723 217.60000000000002 19.434338 128 51.611569 115.20000000000005 70.910031 102.39999999999998 109.526646 128 135.264492 172.79999999999995 148.143262 121.60000000000002 180.320492 76.79999999999995 218.937108 38.39999999999998 173.881108 19.200000000000045 141.703877-6.399999999999977 141.703877-38.39999999999998 141.703877-89.60000000000002 225.3568-128 321.888492-128 412.000492-128 489.214031-96 502.0928-51.200000000000045 508.532185-51.200000000000045 521.391262-51.200000000000045 521.391262-51.200000000000045 534.270031-96 611.483569-128 701.575877-128 804.546954-128 881.780185-89.60000000000002 881.780185-38.39999999999998 881.780185-6.399999999999977 849.602954 19.200000000000045 804.546954 38.39999999999998 849.602954 76.79999999999995 881.780185 121.60000000000002 888.219569 172.79999999999995 920.3968 128 952.574031 102.39999999999998 971.872492 115.20000000000005 1004.049723 134.39999999999998 997.610338 217.60000000000002 958.993723 307.20000000000005 926.816492 377.6 888.219569 428.8 856.042338 441.6 856.042338 448 856.042338 448 856.042338 454.4 856.042338 480 849.602954 505.6 836.724185 524.8L836.724185 531.2C836.724185 544 836.724185 556.8 830.2848 563.2 836.724185 748.8 714.454646 896 521.391262 896 328.327877 896 206.058338 748.8 199.618954 563.2 193.179569 556.8 186.759877 544 186.759877 531.2L186.759877 524.8C173.881108 505.6 167.441723 480 167.441723 454.4 167.441723 448 167.441723 448 167.441723 441.6 141.703877 428.8 96.667569 377.6 64.490338 307.20000000000005L64.490338 307.20000000000005M64.490338 307.20000000000005L64.490338 307.20000000000005Z"  horiz-adv-x="1024" />

    
    <glyph glyph-name="bb-cry" unicode="&#59242;" d="M512 896C229.216 896 0 666.752 0 384c0-282.784 229.216-512 512-512s512 229.216 512 512C1024 666.752 794.784 896 512 896zM512-64C264.576-64 64 136.57600000000002 64 384 64 631.392 264.576 832 512 832s448-200.608 448-448C960 136.57600000000002 759.424-64 512-64zM358.016 532.512m-79.008 0a2.469 2.469 0 1 1 158.016 0 2.469 2.469 0 1 1-158.016 0ZM670.016 532.512m-79.008 0a2.469 2.469 0 1 1 158.016 0 2.469 2.469 0 1 1-158.016 0ZM279.008 223.48800000000006c0 0-16-36 16-60 0 0 36-22.016 67.616 11.968 0 0 30.4 104.032 150.4 97.856 0 0 90.016 2.176 147.744-88.256 0 0 9.248-41.568 68.8-22.336 0 0 35.424 32.768 9.44 68.768 0 0-68.992 122.752-226.016 122.016C512.992 353.504 358.016 372.256 279.008 223.48800000000006z"  horiz-adv-x="1024" />

    
    <glyph glyph-name="bb-message" unicode="&#58905;" d="M441.540085 425.74434c38.912-36.558979 102.00783-36.558979 140.91983 0L972.386043 792.053106a102.901106 102.901106 0 0 1-73.357617 30.611064H124.949787a102.770383 102.770383 0 0 1-73.33583-30.611064l389.926128-366.308766zM582.438128 307.43966c-38.912-36.558979-102.00783-36.558979-140.91983 0L21.74366 701.83217v-653.268425a103.206128 103.206128 0 0 1 103.18434-103.184341h774.078638a103.206128 103.206128 0 0 1 103.227915 103.184341V701.83217L582.438128 307.43966z"  horiz-adv-x="1024" />

    
    <glyph glyph-name="bb-triangle" unicode="&#58901;" d="M90.125 194.39200000000005l421.898 421.803 421.852-421.803h-843.75z"  horiz-adv-x="1024" />

    
    <glyph glyph-name="bb-add-a" unicode="&#59423;" d="M512.548-62.03899999999999c-246.038 0-445.491 199.453-445.491 445.49S266.511 828.942 512.548 828.942s445.49-199.453 445.49-445.491-199.452-445.49-445.49-445.49z m37.125 482.615V568.981c0 20.832-16.621 37.216-37.124 37.216-20.646 0-37.124-16.662-37.124-37.216v-148.405H327.019c-20.832 0-37.216-16.621-37.216-37.124 0-20.646 16.662-37.124 37.216-37.124h148.405v-148.405c0-20.832 16.621-37.216 37.124-37.216 20.646 0 37.124 16.662 37.124 37.216V346.327h148.405c20.832 0 37.216 16.621 37.216 37.124 0 20.646-16.662 37.124-37.216 37.124H549.673z"  horiz-adv-x="1024" />

    
    <glyph glyph-name="bb-alipay-a" unicode="&#58884;" d="M215.04 331.87840000000006c-21.6064-2.1504-62.1568-11.6736-84.3264-31.232-66.56-57.7536-26.6752-163.3792 107.776-163.3792 78.1312 0 156.2624 49.8688 217.6 129.5872-87.04 42.496-161.024 72.9088-241.0496 65.024z m501.76-73.0112c124.4672-41.5744 152.6784-43.776 152.6784-43.776V662.016a138.24 138.24 0 0 1-138.24 138.24H143.36a138.24 138.24 0 0 1-138.24-138.24v-585.7792a138.24 138.24 0 0 1 138.24-138.24h587.7248a138.24 138.24 0 0 1 138.24 138.24V81.91999999999996s-224.8192 93.44-338.3808 147.8656c-76.1344-93.3888-174.3872-150.1184-276.48-150.1184-172.4416 0-231.0144 150.4768-149.4016 249.5488 17.8176 21.5552 48.128 42.1888 95.1296 53.76 73.5232 18.0224 190.5664-11.264 300.2368-47.36a599.7056 599.7056 0 0 1 48.6912 118.6304h-337.92V488.448h174.08v61.44H174.6432V583.6800000000001h211.0464V671.0784a14.4896 14.4896 0 0 0 14.9504 14.6944h85.1968V583.6800000000001h208.6912v-34.1504H485.8368v-61.44h170.3936a694.1696 694.1696 0 0 0-72.1408-181.7088c51.712-18.6368 98.0992-36.3008 132.7104-47.872zM2484.9408 693.2992h280.2688v-55.5008h100.096V703.5391999999999a1.4336 1.4336 0 0 0 0 0.4096 26.6752 26.6752 0 0 1-25.9072 26.9824h-162.048v51.712h-104.7552v-51.712h-187.7504v-93.1328h100.096zM1806.848 777.8816l-102.6048-242.7392h78.6944v-288.8192h86.1184V629.4528h-31.1808l64.8704 148.4288H1806.848zM2845.3376 365.77279999999996a16.3328 16.3328 0 0 1-15.36 11.7248h-83.456l24.1664-81.6128H2672.64V453.9392h192.4096V491.52H2672.64V565.9136h192.4096v37.632h-480.256v-37.632h192.4096V491.52h-192.3584v-37.632h192.4096v-158.0032h-192.4096v-37.632h491.9808l-0.4096 1.28h0.4096zM2027.0592 578.9184a19.968 19.968 0 0 1-17.7152 11.3152h-74.5472l58.0608-182.8352h88.1664zM2215.7312 773.4784h-89.4976V679.936h-220.5184v-37.632h220.5184v-336.128a15.36 15.36 0 0 0-14.4384-14.08h-45.4656v-38.9632h115.968a35.328 35.328 0 0 1 33.4336 34.8672V642.3552h36.352V679.936h-36.352zM1598.464 281.6a1060.2496 1060.2496 0 0 0-197.2224 94.0032c73.6768 54.528 138.24 128.5632 163.84 227.584h-171.7248v61.44h199.2704v38.4512h-199.2704V781.1072h-88.832a17.92 17.92 0 0 1-17.6128-18.2272v-59.8016H1089.024v-38.3488h197.888v-61.44h-167.0144v-38.3488h332.8s-18.432-71.9872-109.6704-149.3504C1261.1072 477.3376 1233.92 526.6432 1233.92 526.6432h-89.3952c36.096-62.5664 87.3984-112.64 142.6432-152.4736-50.7392-32.9728-116.5824-64.768-201.6768-90.2144v-46.08a900.4032 900.4032 0 0 1 258.2016 99.5328 924.3136 924.3136 0 0 1 254.7712-99.328zM1184.8192 167.67999999999995l-81.92-222.7712h41.6768l15.36 44.8512h81.92l14.848-44.8512h41.6768l-81.92 222.7712z m-14.848-149.8112l31.9488 92.16 30.72-92.16zM1521.408 167.67999999999995h-40.0384v-222.7712h134.8608v30.3104h-94.8224v192.4608zM1814.4256 167.67999999999995h40.0896v-222.7712h-40.0896zM2154.7008 167.67999999999995h-86.5792v-222.7712h40.0384V30.720000000000027h46.5408c43.2128 0 73.3696 28.2112 73.3696 68.5568s-30.1568 68.4032-73.3696 68.4032z m-2.2528-106.5472h-44.288v76.2368h44.288c22.2208 0 35.5328-19.456 35.5328-38.2464s-12.4416-37.9904-35.4816-37.9904zM2457.2416 167.67999999999995l-81.92-222.7712h41.6768l15.36 44.8512h81.92l14.848-44.8512h41.6768l-81.92 222.7712zM2442.24 17.868799999999965l31.9488 92.16 30.72-92.16zM2794.3424 167.67999999999995l-43.7248-94.9248-44.3904 94.9248h-43.264l67.4304-131.2768v-91.4944h39.7824v91.4944l0.256 0.512 67.2256 130.7648h-43.3152z"  horiz-adv-x="2899" />

    
    <glyph glyph-name="bb-user" unicode="&#59046;" d="M512 810.7008C276.3776 810.7008 85.2992 619.6224 85.2992 384S276.3776-42.59839999999997 512-42.59839999999997 938.5984 148.37760000000003 938.5984 384C938.7008 619.6224 747.6224 810.7008 512 810.7008z m189.6448-663.8592c0 104.448-84.7872 189.5424-189.1328 189.7472h-0.7168c-104.5504-0.2048-189.3376-85.2992-189.3376-189.7472h-47.4112c0 99.9424 61.8496 185.2416 149.2992 220.16-33.0752 26.0096-54.4768 66.4576-54.4768 111.8208 0 78.5408 63.5904 142.336 142.2336 142.336 78.5408 0 142.2336-63.6928 142.2336-142.336 0-45.4656-21.4016-85.8112-54.4768-111.8208 87.4496-34.9184 149.2992-120.2176 149.2992-220.16h-47.5136zM512 573.7472c-52.3264 0-94.8224-42.5984-94.8224-94.8224 0-52.224 42.3936-94.72 94.5152-94.9248h0.6144c52.1216 0.2048 94.5152 42.7008 94.5152 94.9248S564.224 573.7472 512 573.7472z"  horiz-adv-x="1024" />

    
    <glyph glyph-name="bb-pic" unicode="&#58913;" d="M868.75136 696.15616H155.24864a44.5952 44.5952 0 0 1-44.5952-44.5952v-431.06816h802.688V651.56096a44.5952 44.5952 0 0 1-44.59008 44.5952zM609.88416 399.01184l-154.94656-178.51904h309.86752l-154.92096 178.51904zM583.0656 220.48767999999995l-206.53568 237.9776-206.5408-237.9776H110.65344v-104.04352a44.5952 44.5952 0 0 1 44.5952-44.60032h713.4976c24.6272 0 44.5952 19.968 44.5952 44.60032v104.04864l-330.27584-0.00512zM705.23392 547.51232c-0.01536-32.83456 26.59328-59.46368 59.43296-59.47904 32.83456-0.01024 59.46368 26.5984 59.47904 59.43808v0.04096c0.01024 32.83968-26.5984 59.4688-59.43296 59.47904-32.83968 0.01024-59.4688-26.5984-59.47904-59.43296v-0.04608z"  horiz-adv-x="1024" />

    
    <glyph glyph-name="bb-sort" unicode="&#58885;" d="M646.2-49.299999999999955c-17.7 0-32.1 14.4-32.1 32.1V785.2c0 13 7.8 24.7 19.8 29.7s25.8 2.2 35-7l268.8-268.8c12.5-12.5 12.5-32.9 0-45.4s-32.9-12.5-45.4 0l-214 214v-724.9c0-17.7-14.4-32.1-32.1-32.1zM377.8-49.299999999999955c-8.4 0-16.6 3.3-22.7 9.4l-268.8 268.8c-12.5 12.5-12.5 32.9 0 45.4s32.9 12.5 45.4 0l214-214V785.2c0 17.7 14.4 32.1 32.1 32.1s32.1-14.4 32.1-32.1v-802.4c0-13-7.8-24.7-19.8-29.7-4-1.6-8.1-2.4-12.3-2.4z"  horiz-adv-x="1024" />

    
    <glyph glyph-name="bb-order" unicode="&#58888;" d="M878.933 657.067h-93.866C776.533 793.6 657.067 896 520.533 896c-136.533 0-256-102.4-256-238.933H145.067L42.667-128h938.666l-102.4 785.067z m-358.4 170.666c102.4 0 179.2-76.8 187.734-170.666H332.8c8.533 93.866 85.333 170.666 187.733 170.666zM307.2 409.6c-25.6 0-51.2 17.067-51.2 42.667s17.067 42.666 51.2 42.666c25.6 0 42.667-17.066 42.667-42.666 0-25.6-17.067-42.667-42.667-42.667z m418.133 0c-25.6 0-42.666 17.067-42.666 42.667s17.066 51.2 42.666 51.2c25.6 0 51.2-17.067 51.2-42.667s-25.6-51.2-51.2-51.2z"  horiz-adv-x="1024" />

    
    <glyph glyph-name="bb-shoppingcart-a" unicode="&#58887;" d="M352.457 63.96799999999996c-35.435 0-63.99-28.555-63.99-63.99 0-35.434 28.555-63.989 63.99-63.989s63.99 28.555 63.99 63.99c0 35.434-28.555 63.989-63.99 63.989zM800.554 63.96799999999996c-35.435 0-63.99-28.555-63.99-63.99 0-35.434 28.555-63.989 63.99-63.989s63.989 28.555 63.989 63.99c0 35.434-28.726 63.989-63.99 63.989zM864.027 95.96199999999999H344.2c-46.1 0-86.695 36.467-92.2 83.083L197.645 561.0899999999999l-30.79 178.55c-1.892 15.653-16.17 28.383-29.93 28.383h-40.94c-17.718 0-31.995 14.277-31.995 31.994s14.277 31.995 31.995 31.995h40.767c46.616 0 87.727-36.467 93.404-83.083l30.79-177.863 54.529-383.763c1.72-14.793 15.31-27.35 28.726-27.35h519.827c17.717 0 31.995-14.278 31.995-31.995s-14.278-31.995-31.995-31.995zM384.28 223.94100000000003c-16.686 0-30.619 12.729-31.823 29.586-1.376 17.546 11.869 33.027 29.586 34.231l434.164 31.995c15.997 0.172 29.414 12.557 31.134 26.834l50.401 288.296c1.204 10.664-1.721 22.533-8.085 29.758-4.128 4.644-9.289 7.053-15.309 7.053H319.946c-17.717 0-31.994 14.277-31.994 31.994 0 17.718 14.449 32.339 31.994 32.339h554.058c24.426 0 46.96-10.149 63.301-28.554 18.749-21.158 27.178-50.745 23.566-81.707l-50.4-288.468c-5.505-44.896-45.928-81.363-92.028-81.363l-431.755-31.822c-0.86 0-1.72-0.172-2.408-0.172z"  horiz-adv-x="1024" />

    
    <glyph glyph-name="bb-data" unicode="&#58925;" d="M96-108.79999999999995h83.2v256H96v-256z m256 0h83.2V268.79999999999995H352v-377.6z m288 0h83.2V364.79999999999995H640v-473.6z m268.8 0h76.8V505.6h-76.8v-614.4zM960 608l57.6 268.8-313.6-64 96-76.8-268.8-236.8-134.4 102.4L6.4 256 64 211.20000000000005l332.8 294.4 134.4-102.4 326.4 288L960 608z m0 0"  horiz-adv-x="1024" />

    
    <glyph glyph-name="bb-undercarriage" unicode="&#59052;" d="M1023.644 267.244L989.845 551.8299999999999c-2.941 24.793-25.497 42.562-50.284 39.62L39.934 484.608C15.145 481.666-2.625 459.1 0.319 434.318l33.798-284.579c2.94-24.791 25.498-42.56 50.292-39.617l899.618 106.837c24.791 2.94 42.565 25.508 39.617 50.285z m-43.25-19.652L80.771 140.74800000000005c-7.896-0.936-15.085 4.718-16.03 12.624L30.948 437.949c-0.944 7.905 4.721 15.091 12.629 16.039L943.199 560.8199999999999c7.897 0.941 15.092-4.722 16.024-12.624l33.801-284.58c0.937-7.909-4.733-15.09-12.63-16.024zM170.663 304.96299999999997l142.703 16.441 37.086 38.744-10.643 95.084-232.403-26.34 3.478-30.681 186.449 21.131 7.7-67.942-137.979-15.772-3.686 32.522-45.426-5.148 19.193-170.531 218.446 24.758 10.743 32.293-186.976-21.192zM503.973 408.223l-3.939 34.762 107.592 12.059 11.587 34.254-246.096-27.89 3.67-32.391 77.161 8.745 24.565-216.734 43.8 25.368-15.473 136.546 71.178-72.619 51.614 5.85-93.794 95.663zM856.8 394.599l35.523 36.033-9.878 87.169-110.736-12.551 13.461-118.77 71.63 8.119z m-10.781 90.399l7.031-62.018-31.602-3.583-7.03 62.019 31.601 3.582zM815.861 331.01300000000003l48.446-49.724 44.769 5.074-49.632 49.589zM891.676 352.808l10.048 30.212-102.574-11.625-1.539 13.563-41.608-4.715 1.538-13.564-96.516-10.939 3.251-28.705 96.518 10.94 8.926-78.743 39.682 21.704-7.001 61.753zM671.933 259.486l45.294 5.135 32.929 58.944-43.186-4.893zM698.108 374.48l5.092 86.863 17.644 1.999 6.087-53.723-16.063-1.819 3.328-29.363 20.805 2.358 31.302 33.288-9.179 80.979-52.274-5.925 0.65 11.944-39.897-4.522-0.782-11.958-18.171-2.059 3.091-27.258 13.431 1.522-5.092-86.864z"  horiz-adv-x="1024" />

    
    <glyph glyph-name="bb-choice-g" unicode="&#59309;" d="M512 896C229.230508 896 0 666.770935 0 384S229.229065-128 512-128 1024 101.22906499999999 1024 384 794.769492 896 512 896z m-16.44289-676.522715l0.014434-0.014433-65.824963-65.826407-0.014434 0.015877-0.040414-0.040414-65.824963 65.824963 0.040414 0.040414L199.358489 384.024537l65.824963 65.824963 164.547252-164.547252 329.085844 329.085844 65.824963-65.824963L495.55711 219.47728500000005z"  horiz-adv-x="1024" />

    
    <glyph glyph-name="bb-alipay" unicode="&#59120;" d="M283.529846 104.36923100000001c-149.661538 0-173.292308 94.523077-165.415384 133.986461 7.876923 39.305846 51.2 90.584615 134.419692 90.584616 95.625846 0 181.248-24.457846 284.041846-74.515693-72.192-94.011077-160.886154-150.055385-253.046154-150.055384M1024 194.953846V699.116308A196.923077 196.923077 0 0 1 827.076923 896H196.883692A196.923077 196.923077 0 0 1 0 699.116308V68.92307700000003A196.923077 196.923077 0 0 1 196.883692-128H827.076923a197.080615 197.080615 0 0 1 193.851077 162.107077c-52.224 22.606769-278.528 120.32-396.406154 176.600615-89.718154-108.701538-183.689846-173.883077-325.316923-173.883077S63.015385 124.06153800000004 74.358154 230.79384600000003c7.483077 70.104615 55.532308 184.674462 264.349538 165.021539 110.001231-10.318769 160.374154-30.838154 250.092308-60.49477 23.236923 42.535385 42.496 89.403077 57.147077 139.264H248.123077V514.008615h196.844308V584.861538H204.8V628.184615h240.128V730.348308s2.166154 15.990154 19.849846 15.990154H563.2v-118.153847h256V584.861538h-256V513.969231h208.856615a806.912 806.912 0 0 0-84.834461-212.676923c60.652308-21.937231 336.777846-106.338462 336.777846-106.338462"  horiz-adv-x="1024" />

    
    <glyph glyph-name="bb-myenshrine" unicode="&#58933;" d="M766.22119-100.27800000000002c-16.027 0-32.035 3.924-46.291 11.337L512.11819 19.755999999999972 304.45019-88.91200000000003c-14.074-7.294-30.074-11.141-46.287-11.141-20.062 0-39.236 5.682-55.447 16.435-30.496 20.5-46.264 56.304-40.204 91.219l40.631 235.422L27.95619 412.941C2.13119 437.97-6.61381 474.288 5.14319 507.721c11.749 33.042 41.365 56.727 77.303 61.826l238.588 34.509 103.645 208.9c15.96 32.124 50.263 52.877 87.396 52.877 37.229 0 71.568-20.755 87.48-52.88l103.603-208.874 238.618-34.471c35.884-5.202 65.482-28.869 77.245-61.753 11.802-33.474 3.103-69.843-22.698-94.935L821.11219 242.99099999999999l40.611-235.437c6.066-34.904-9.643-70.661-40.022-91.091-16.517-10.957-35.692-16.741-55.48-16.741zM512.11819 813.19c-16.909 0-32.384-9.168-39.42-23.358L356.68119 555.996 90.16319 517.4300000000001c-16.188-2.291-29.429-12.662-34.569-27.064-4.905-13.966-1.138-29.252 9.839-39.879l195.057-189.219-45.304-262.519c-2.602-14.912 4.103-29.765 17.495-38.762 7.229-4.81 16.263-7.468 25.414-7.468 7.531 0 14.926 1.774 21.38 5.125l232.624 121.725L744.88319-42.40899999999999c6.374-3.307 13.709-5.059 21.194-5.059 9.177 0 18.273 2.677 25.613 7.536 13.265 8.933 19.913 23.748 17.315 38.632l-45.279 262.572 195.072 189.215c10.969 10.636 14.736 25.963 9.831 39.997-5.116 14.319-18.37 24.699-34.579 27.061L667.59319 556.0160000000001 551.60019 789.86c-7.028 14.17-22.527 23.33-39.482 23.33zM379.72619 334.71799999999996c-14.396 0-26.367 11.533-26.683 25.711-0.07 2.806-1.193 69.475 44.65 115.68 27.486 27.701 64.987 41.747 111.467 41.747 14.718 0 26.69-11.826 26.69-26.357 0-14.517-11.983-26.329-26.71-26.329-31.459 0-56.044-8.643-73.065-25.689-29.464-29.474-29.648-76.06-29.64-78.031 0.217-14.458-11.539-26.462-26.205-26.729h-0.505v-0.003h0.001z"  horiz-adv-x="1024" />

    
    <glyph glyph-name="bb-collect-a" unicode="&#58950;" d="M1011.166 505.88v0.005c-11.139 31.592-39.193 54.331-73.225 59.341l-240.043 35.173L593.649 813.596c-15.072 30.868-47.631 50.816-82.958 50.816-35.24 0-67.757-19.949-82.871-50.816l-104.292-213.22-240.023-35.217c-34.054-4.899-62.131-27.617-73.27-59.385C-0.881 473.697 7.4 438.852 31.832 414.84l176.177-173.344-40.864-240.197c-5.734-33.483 9.162-67.82 38.052-87.527 28.253-19.005 66.129-21.091 96.559-5.098L510.734 19.600000000000023l209.11-110.948c13.533-7.141 28.715-10.92 43.941-10.92 18.762 0 36.931 5.537 52.639 16.104 28.758 19.619 43.632 53.936 37.898 87.419L813.48 241.47299999999996l176.198 173.342c24.388 24.036 32.671 58.902 21.488 91.065zM507.93 463.345c-30.544 0-54.56-8.61-71.306-25.623-29.29-29.722-28.918-76.497-28.918-76.971 0.165-11.349-8.857-20.74-20.205-20.948h-0.392c-11.163 0-20.33 8.898-20.576 20.104-0.062 2.615-0.947 64.096 40.452 106.423 24.798 25.356 58.784 38.228 100.967 38.228v0.001c11.369 0 20.576-9.248 20.576-20.617-0.001-11.369-9.229-20.597-20.598-20.597zM969.708 491.381c-5.667 16.082-20.3 27.771-38.14 30.406l-262.936 38.514L554.19 794.326c-7.777 15.907-24.826 26.167-43.478 26.167-18.585 0-35.634-10.283-43.411-26.188L352.836 560.28 89.834 521.681c-17.861-2.571-32.428-14.216-38.118-30.385-5.47-15.797-1.295-33.131 10.92-45.126l192.523-189.447-44.709-262.806c-2.9-16.874 4.525-33.636 19.377-43.764 14.851-10.018 35.174-11.159 51.366-2.635l229.498 121.824 229.674-121.888c16.017-8.436 36.318-7.36 51.366 2.747 14.698 10.039 22.123 26.781 19.224 43.653l-44.688 262.849L958.813 446.15v-0.005c12.215 12.039 16.388 29.351 10.895 45.236zM507.93 463.345c-30.544 0-54.56-8.61-71.306-25.623-29.29-29.722-28.918-76.497-28.918-76.971 0.165-11.349-8.857-20.74-20.205-20.948h-0.392c-11.163 0-20.33 8.898-20.576 20.104-0.062 2.615-0.947 64.096 40.452 106.423 24.798 25.356 58.784 38.228 100.967 38.228v0.001c11.369 0 20.576-9.248 20.576-20.617-0.001-11.369-9.229-20.597-20.598-20.597z"  horiz-adv-x="1024" />

    
    <glyph glyph-name="bb-choice-c" unicode="&#58970;" d="M364.787 26.75999999999999c-11.761 0-23.527 4.478-32.44 13.453L21.844 350.654c-17.959 17.99-17.959 46.918 0 64.909 17.894 17.862 46.951 17.862 64.814 0l278.161-278.096L939.375 711.99c17.829 17.992 46.92 17.992 64.781 0 17.958-17.926 17.958-46.918 0-64.845l-606.93-606.994c-8.977-8.913-20.679-13.391-32.439-13.391z m0 0"  horiz-adv-x="1024" />

    
    <glyph glyph-name="bb-date" unicode="&#59047;" d="M846.063-124.31600000000003h-662.05c-84.386 0-152.781 68.395-152.781 152.781V665.0509999999999c0 84.386 68.395 152.781 152.781 152.781H311.33V894.222h50.927v-76.39h305.561V894.222h50.927v-76.39h127.317c84.386 0 152.781-68.395 152.781-152.781v-636.587c0-84.385-68.394-152.78-152.78-152.78z m101.853 789.367c0 56.248-45.605 101.854-101.854 101.854H718.745v-76.39h-50.927v76.39H362.257v-76.39H311.33v76.39H184.013c-56.249 0-101.854-45.605-101.854-101.854v-50.927h865.758v50.927h-0.001z m0-101.854H82.159v-534.733c0-56.249 45.605-101.854 101.854-101.854h662.05c56.248 0 101.854 45.605 101.854 101.854V563.197h-0.001zM693.282 155.78200000000004h152.781v-50.927H693.282v50.927z m0 229.171h152.781v-50.927H693.282v50.927zM438.647 155.78200000000004h152.781v-50.927H438.647v50.927z m0 229.171h152.781v-50.927H438.647v50.927zM184.013 155.78200000000004h152.781v-50.927H184.013v50.927z m0 229.171h152.781v-50.927H184.013v50.927z"  horiz-adv-x="1024" />

    
    <glyph glyph-name="bb-unionpay" unicode="&#59221;" d="M1108.329412 756.789542H267.712418c-38.818301 0-77.636601-31.456209-87.006536-70.94379l-129.840523-555.503268c-8.700654-38.818301 14.724183-70.27451 54.211765-70.27451h840.616994c38.818301 0 77.636601 31.456209 87.006536 70.27451l129.840522 556.172549c8.700654 38.818301-15.393464 70.27451-54.211764 70.274509zM298.499346 725.333333h252.988236c35.471895 0 57.55817-28.779085 48.857516-64.25098l-117.793464-505.30719c-8.031373-35.471895-43.503268-64.25098-78.975163-64.25098H151.257516c-35.471895 0-57.55817 28.779085-48.857516 64.25098l117.793464 505.30719c8.031373 35.471895 42.833987 64.25098 78.305882 64.25098zM530.739869 725.333333h290.467974c35.471895 0 19.40915-28.779085 11.377778-64.25098l-117.793464-505.30719c-8.031373-35.471895-5.354248-64.25098-40.826144-64.25098H382.828758c-35.471895 0-57.55817 28.779085-48.857516 64.25098l117.793464 505.30719c8.031373 35.471895 43.503268 64.25098 78.975163 64.25098zM809.830065 725.333333h252.988236c35.471895 0 57.55817-28.779085 48.857516-64.25098l-117.793464-505.30719c-8.031373-35.471895-43.503268-64.25098-78.975163-64.25098H661.918954c-35.471895 0-57.55817 28.779085-48.857516 64.25098l117.793464 505.30719c8.031373 35.471895 43.503268 64.25098 78.975163 64.25098zM767.665359 250.14379099999996h24.094118l6.692811 22.755555h-24.094118l-6.692811-22.755555z m18.73987 62.912418l-8.031373-26.771242s8.700654 4.684967 14.054902 6.02353c4.684967 1.338562 12.047059 2.007843 12.047059 2.007843l6.023529 18.739869h-24.094117z m12.047059 38.818301l-8.031373-26.101961s8.700654 4.015686 13.385621 5.354248c4.684967 1.338562 12.047059 2.007843 12.047059 2.007844l5.354248 18.739869h-22.755555z m52.873202 0l-30.786928-101.730719h8.031373l-6.692811-20.747713h-8.031372l-2.007844-6.69281h-29.448366l2.007844 6.69281h-59.566013l6.023529 19.409151h6.023529l31.45621 103.738562 6.023529 20.747712h30.117647l-3.346405-10.708496s8.031373 6.023529 15.393464 8.031372c7.362092 2.007843 50.865359 2.677124 50.865359 2.677124l-6.69281-20.747712-9.369935-0.669281zM864.04183 373.29150300000003h32.12549l0.669281-12.047059c0-2.007843 1.338562-2.677124 5.354249-2.677124h6.69281l-6.023529-19.40915h-17.401307c-14.724183-1.338562-20.747712 5.354248-20.078432 12.71634l-1.338562 21.416993z m4.684967-93.699346h-30.117647l5.354249 17.401307h34.802614l5.354248 16.062745H849.986928l6.02353 19.40915H950.379085l-6.023529-19.40915h-32.125491l-5.354248-16.062745h32.12549l-5.354248-17.401307h-34.802615l-6.023529-7.362092h14.054902l3.346405-22.086274c0.669281-2.007843 0.669281-3.346405 1.338562-4.684967 0.669281-0.669281 4.684967-1.338562 7.362092-1.338563h4.015686l-6.69281-21.416993h-10.708497c-2.007843 0-4.015686 0-7.362092 0.669281-3.346405 0-5.354248 2.007843-8.031372 3.346405-2.007843 0.669281-4.684967 3.346405-5.354249 7.362092l-3.346405 22.086274-16.062745-21.416993c-5.354248-6.69281-12.047059-12.047059-23.424836-12.047059h-22.086275l6.023529 19.40915h8.700654c2.677124 0 4.684967 0.669281 6.023529 2.007843 2.007843 0.669281 3.346405 1.338562 4.684968 4.015687l23.424836 31.456209zM535.424837 327.780392h80.313725l-6.023529-19.40915h-32.125491l-5.354248-16.062745h32.794771l-6.023529-20.078432h-32.794771l-8.031373-26.771241c-0.669281-2.677124 8.031373-3.346405 10.708497-3.346406l16.732026 2.007843-6.69281-22.086274H542.117647c-2.677124 0-5.354248 0.669281-8.700654 1.338562s-4.684967 2.007843-6.023529 4.015686c-1.338562 2.007843-3.346405 4.015686-2.007843 8.700654l10.708497 35.471895h-18.070589l6.02353 20.078432H542.117647l4.684967 16.062745H528.732026l6.692811 20.078431z m54.211764 34.133333H622.431373l-6.02353-20.078431h-44.84183l-4.684967-4.015686c-2.007843-2.007843-2.677124-1.338562-5.354249-2.677124s-8.031373-4.015686-14.724183-4.015687h-14.724183l6.02353 19.409151h4.015686c4.015686 0 6.023529 0.669281 7.362092 1.338562 1.338562 0.669281 3.346405 2.677124 4.684967 6.023529l8.031372 14.724183h33.464053l-6.02353-10.708497zM652.54902 329.11895400000003s8.700654 8.031373 24.094117 10.708497c4.015686 0.669281 26.101961 0.669281 26.101961 0.669281l3.346405 11.377778h-46.849673l-6.69281-22.755556z m44.172549-8.031372h-46.180393l-2.677124-9.369935h40.156863c4.684967 0.669281 6.023529 0 6.023529 0l2.677125 9.369935z m-60.235294 52.203921h28.109803l-4.015686-14.054902s8.700654 7.362092 14.724183 9.369935c6.023529 2.007843 20.078431 4.684967 20.078432 4.684967h45.511111l-15.393464-51.53464c-2.677124-8.700654-5.354248-14.724183-7.362092-17.401307-2.007843-2.677124-4.015686-4.684967-8.031372-7.362092-4.015686-2.007843-7.362092-3.346405-10.708497-3.346405-2.677124 0-7.362092-0.669281-14.054902-0.669281H642.509804l-12.71634-40.826144c-1.338562-4.015686-2.007843-6.023529-0.669281-7.362092 0.669281-0.669281 2.007843-2.007843 4.015686-2.007843l19.409151 2.007843-6.692811-22.755555h-21.416993c-6.69281 0-12.047059 0-15.393464 0.669281-3.346405 0-6.69281 0-9.369935 2.007843-2.007843 2.007843-5.354248 4.015686-5.354248 6.692811 0 2.007843 1.338562 6.023529 2.677124 10.708496l39.487582 131.179085zM718.807843 289.63137300000005l-2.677124-12.71634c-1.338562-4.015686-2.007843-6.69281-5.354248-9.369935-3.346405-2.677124-6.69281-5.354248-15.393464-5.354248l-15.393465-0.669281v-14.054902c0-4.015686 0.669281-3.346405 1.338563-4.015687 0.669281-0.669281 1.338562-0.669281 2.007843-1.338562h4.684967l14.724183 0.669281-6.023529-20.747712h-17.401308c-12.047059 0-20.747712 0-24.094117 2.677124-2.677124 2.007843-3.346405 4.015686-3.346405 8.031373l1.338562 54.881045h27.440523l-0.669282-11.377777h6.692811c2.007843 0 4.015686 0 4.684967 0.669281 0.669281 0.669281 1.338562 1.338562 2.007843 2.677124l2.677125 8.700653 22.755555 1.338563z m-390.19085 274.405228c-0.669281-4.684967-18.739869-85.667974-18.739869-85.667974-4.015686-16.062745-6.69281-28.109804-16.062745-35.471895-5.354248-4.015686-11.377778-6.69281-18.739869-6.69281-11.377778 0-18.070588 6.023529-19.409151 16.732026v4.015686l3.346406 22.086274s18.070588 73.620915 21.416993 83.660131v1.338562c-36.141176-0.669281-42.164706 0-42.833987 0.669281 0-0.669281-1.338562-5.354248-1.338562-5.354248l-18.739869-82.99085-2.007843-7.362091-1.338562-23.424837c0-6.69281 1.338562-12.71634 4.015686-17.401307 8.700654-14.724183 32.794771-17.401307 46.849673-17.401307 18.070588 0 34.802614 4.015686 45.511111 10.708497 19.40915 11.377778 24.763399 29.448366 29.448366 45.511111l2.007843 8.031372s18.739869 76.298039 22.086275 86.337255v1.338562c-25.43268 0.669281-32.794771 0.669281-35.471896 1.338562z m105.077125-151.926797c-12.71634 0-17.401307 0-32.125491-0.669281l-0.669281 1.338562c1.338562 5.354248 2.677124 11.377778 4.015687 16.732026l2.007843 8.031373c2.677124 12.047059 5.354248 26.101961 6.023529 30.117647 0 2.677124 1.338562 8.700654-6.023529 8.700653-3.346405 0-6.023529-1.338562-9.369935-2.677124-2.007843-6.69281-5.354248-24.094118-7.362091-32.794771-4.015686-17.401307-4.015686-19.40915-5.354249-28.109804l-1.338562-1.338562c-13.385621 0-17.401307 0-32.794771-0.669281l-0.669281 1.338562c2.677124 10.039216 5.354248 20.747712 7.362091 30.786928 6.69281 28.109804 8.031373 38.818301 9.369935 52.873203l1.338562 0.669281c14.724183 2.007843 18.070588 2.677124 34.133333 6.023529l1.338563-1.338562-2.677125-8.700654c2.677124 1.338562 5.354248 3.346405 8.031373 4.684968 7.362092 3.346405 16.062745 4.684967 20.747712 4.684967 6.69281 0 14.724183-2.007843 18.070589-10.039216 2.677124-7.362092 0.669281-16.062745-2.677125-33.464052l-2.007843-8.700654c-4.015686-19.40915-4.684967-22.755556-7.362091-36.141176l-2.007843-1.338562z m51.53464 0h-17.401307c-4.684967 0-9.369935 0-16.732026-0.669281l-0.669281 0.669281-0.669281 0.669281c2.007843 7.362092 2.677124 10.039216 4.015686 12.71634 0.669281 2.677124 2.007843 5.354248 3.346405 12.71634 2.007843 10.039216 3.346405 16.732026 4.684968 22.755555 0.669281 6.023529 1.338562 10.708497 2.007843 16.062745l0.669281 0.669281 0.669281 0.669281c7.362092 1.338562 12.71634 2.007843 17.401307 2.677125 5.354248 0.669281 10.039216 2.007843 18.070588 3.346405v-1.338562l-4.015686-18.070588-4.015686-18.070589c-2.677124-12.71634-4.015686-17.401307-4.684968-20.747712-0.669281-3.346405-0.669281-5.354248-2.007843-11.377778l-0.669281-0.669281v-2.007843z m80.983007 44.84183c-0.669281-3.346405-3.346405-15.393464-7.362092-20.747712-2.677124-4.015686-6.023529-6.023529-9.369934-6.02353-0.669281 0-7.362092 0-7.362092 9.369935 0 4.684967 0.669281 9.369935 2.007843 14.724183 3.346405 14.724183 7.362092 27.440523 17.401307 27.440523 7.362092-0.669281 8.031373-10.039216 4.684968-24.763399z m33.464052-1.338562c4.684967 19.40915 1.338562 28.779085-3.346405 34.133333-6.69281 8.700654-18.070588 11.377778-30.117647 11.377778-7.362092 0-24.763399-0.669281-38.14902-13.385621-10.039216-8.700654-14.054902-21.416993-16.732026-32.794771-2.677124-12.047059-6.023529-33.464052 14.054902-41.495425 6.023529-2.677124 14.724183-3.346405 20.747712-3.346405 14.724183 0 29.448366 4.015686 40.826144 16.062745 7.362092 9.369935 11.377778 23.424837 12.71634 29.448366z m310.546405-44.84183c-15.393464 0-19.40915 0-34.133333-0.669281l-0.669281 1.338562c4.015686 14.724183 8.031373 29.448366 11.377778 44.172549 4.684967 19.40915 5.354248 27.440523 6.69281 38.818301l1.338562 0.669281c15.393464 2.007843 19.40915 2.677124 35.471896 6.023529l0.669281-1.338562c-2.677124-12.047059-6.023529-24.094118-8.700654-36.141177-6.023529-25.43268-8.031373-38.14902-10.039216-51.53464l-2.007843-1.338562zM887.466667 455.613072c-0.669281-3.346405-3.346405-15.393464-7.362092-20.747713-2.677124-4.015686-8.700654-6.023529-12.71634-6.023529-0.669281 0-7.362092 0-7.362091 9.369935 0 4.684967 0.669281 9.369935 2.007843 14.724183 3.346405 14.724183 7.362092 26.771242 17.401307 26.771242 8.031373-0.669281 11.377778-9.369935 8.031373-24.094118z m30.117647-2.007843c4.684967 19.40915-13.385621 2.007843-16.062745 8.031372-4.015686 10.039216-2.007843 30.117647-19.409151 37.479739-6.69281 2.677124-22.755556-0.669281-36.141176-13.385621-9.369935-8.700654-14.054902-20.747712-16.732026-32.794771-2.677124-12.047059-6.023529-33.464052 14.054902-40.826144 6.023529-2.677124 12.047059-3.346405 17.401307-3.346405 20.078431 1.338562 34.802614 30.786928 46.180392 42.833987 8.031373 9.369935 9.369935-3.346405 10.708497 2.007843z m-231.571242-41.495425c-12.71634 0-17.401307 0-32.12549-0.669281l-0.669281 1.338562c1.338562 5.354248 2.677124 11.377778 4.015686 16.732026l2.007843 8.031373c2.677124 12.047059 5.354248 26.101961 6.023529 30.117647 0 2.677124 1.338562 8.700654-6.023529 8.700653-3.346405 0-6.69281-1.338562-9.369935-2.677124-2.007843-6.69281-5.354248-24.094118-7.362091-32.794771-3.346405-17.401307-4.015686-19.40915-5.354248-28.109804l-1.338563-0.669281c-13.385621 0-17.401307 0-32.794771-0.669281l-0.669281 1.338562c2.677124 10.039216 4.684967 20.747712 7.362092 30.786928 6.023529 28.109804 8.031373 38.818301 9.369934 52.873203l1.338562 0.669281c14.724183 2.007843 18.070588 2.677124 34.133334 6.023529l1.338562-2.007843-2.007843-8.700654c2.677124 1.338562 5.354248 3.346405 8.031372 4.684968 7.362092 3.346405 16.062745 4.684967 20.747713 4.684967 6.69281 0 14.724183-2.007843 18.070588-10.039216 2.677124-7.362092 0.669281-16.062745-2.677124-33.464052l-2.007843-8.700654c-4.015686-19.40915-4.684967-22.755556-6.692811-36.141176l-3.346405-1.338562zM796.444444 564.036601h-10.708496c-27.440523-0.669281-38.818301 0-42.833987 0.669281-0.669281-2.007843-1.338562-5.354248-1.338562-5.354248l-10.039216-45.511111s-23.424837-97.045752-24.763399-101.730719h38.14902c0.669281 4.684967 6.69281 31.456209 6.69281 31.456209s4.684967 20.078431 5.354249 20.747712c0 0 1.338562 2.007843 2.677124 2.677125h2.007843c20.747712 0 44.172549 0 62.243137 13.385621 12.71634 9.369935 20.747712 22.755556 24.763399 39.487581 0.669281 4.015686 2.007843 8.700654 2.007843 14.054902 0 6.69281-1.338562 12.71634-4.684967 17.401307-9.369935 12.71634-28.109804 12.71634-49.526798 12.71634z m14.054902-47.518954c-2.007843-10.039216-8.700654-18.739869-17.401307-22.755555-7.362092-3.346405-15.393464-4.015686-24.094117-4.015687h-6.02353l0.669281 2.007843 10.708497 45.511111V541.2810460000001l4.015686-0.669281s21.416993-2.007843 22.086275-2.007843c8.700654-2.677124 12.047059-10.708497 10.039215-22.086275z m225.547713-16.062745l-1.338562 1.338562c-16.062745-3.346405-18.739869-3.346405-32.794772-5.354248l-1.338562-1.338562v-0.669281c-10.708497-24.763399-10.708497-19.40915-19.40915-38.818301v2.677124l-2.007843 42.164706-1.338562 1.338562c-16.062745-3.346405-16.732026-3.346405-32.12549-5.354248l-1.338562-1.338562v-2.007844c2.007843-10.039216 1.338562-7.362092 3.346405-22.755555 0.669281-7.362092 2.007843-14.724183 2.677124-22.755556 1.338562-12.71634 2.677124-18.739869 4.015686-37.479738-10.039216-16.732026-12.71634-23.424837-22.755555-38.14902l0.669281-1.338562c14.724183 0.669281 18.070588 0.669281 29.448366 0.669281l2.677124 2.677124c8.031373 18.070588 71.613072 126.494118 71.613072 126.494118z m-536.763399-10.708497c8.700654 6.023529 9.369935 14.054902 2.007843 18.070588-7.362092 4.015686-19.40915 2.677124-28.109804-2.677124s-9.369935-14.054902-2.677124-18.070588c7.362092-4.684967 20.078431-3.346405 28.779085 2.677124zM963.095425 372.62222199999997l-12.71634-21.416993c-4.015686-7.362092-11.377778-12.71634-22.755556-12.71634l-19.40915 0.669281 6.023529 18.739869h4.015687c2.007843 0 3.346405 0 4.684967 0.669281 0.669281 0.669281 2.007843 1.338562 2.677124 2.007843l7.362092 11.377778h30.117647v0.669281z"  horiz-adv-x="1231" />

    
    <glyph glyph-name="bb-service" unicode="&#59106;" d="M937.472 325.12c0 9.728 0.512 19.456 0 29.184 2.56 133.12-36.864 245.248-114.688 324.096-36.864 37.888-81.92 66.56-133.632 86.528C680.96 836.608 603.136 893.44 508.416 893.44S335.872 837.12 327.68 764.928c-51.2-19.456-96.256-48.64-133.12-86.016-77.312-79.36-117.248-190.976-114.688-323.584v-35.84c-19.968-19.968-35.84-50.688-24.576-93.696 8.704-31.744 32.256-55.808 60.928-66.048 14.848-9.216 31.744-14.336 50.176-14.336 36.864-161.28 170.496-270.336 345.6-270.336 174.592 0 308.224 109.568 345.088 270.848 1.024 0 2.048-0.512 3.584-0.512 23.04 0 44.032 8.192 60.928 21.504 22.016 12.288 38.912 33.28 46.08 59.392 12.8 46.592-7.68 78.848-30.208 98.816zM356.352 517.6320000000001c2.56-4.608 69.12-114.688 194.56-161.792 34.816-13.312 70.144-20.48 104.448-27.648 68.608-14.336 133.632-28.16 178.176-86.016l1.536-1.536v-3.072c0-21.504-1.536-41.984-4.608-61.952-56.832-91.136-151.552-150.528-268.288-163.328-8.704 11.264-26.624 19.456-47.104 19.456-29.184 0-53.248-15.872-53.248-35.328 0-19.456 23.552-35.328 53.248-35.328 26.112 0 47.616 12.8 52.224 29.696 37.888 4.096 73.728 13.312 107.52 27.136 48.128 19.456 90.624 47.616 125.952 84.48 5.632 5.632 11.264 11.776 16.384 17.92-42.496-129.024-155.648-211.968-303.616-211.968h-1.024c-189.44 0-322.048 135.68-322.048 330.24L189.44 256c0 7.68 1.024 30.208 2.56 51.712 103.424 36.352 146.432 141.824 147.968 146.432l16.384 63.488z m68.096-294.912c0-33.792-27.648-61.44-61.44-61.44s-61.44 27.648-61.44 61.44 27.648 61.44 61.44 61.44 61.44-27.648 61.44-61.44z m285.696 0c0-33.28-27.136-60.416-60.416-60.416-33.28 0-60.416 27.136-60.416 60.416 0 33.28 27.136 60.416 60.416 60.416 33.28 0 60.416-27.136 60.416-60.416z"  horiz-adv-x="1024" />

    
    <glyph glyph-name="bb-sina" unicode="&#58900;" d="M464.628 15.486999999999966c-221.495 0-401.174 117.674-401.174 262.922 0 145.12 269.005 374.385 371.919 374.385 43.108 0 127.769-32.624 68.612-136.187-4.143-7.25 133.596 60.196 208.935 15.794 75.342-44.275 0-115.599 0-123.5s151.206-7.895 151.206-130.625c-0.14-145.114-178.003-262.788-399.499-262.788zM779.845 552.99c-24.988 30.033-76.249 23.045-76.249 23.045-10.745-0.258-19.029 7.51-19.029 17.862v7.377c0 10.361 8.285 20.063 18.512 21.62 0 0 61.104 15.535 107.838-27.187s26.665-120.783 26.665-120.783c-1.683-10.485-11.778-18.644-22.138-18.644h-16.961c-10.227 0-16.311 8.026-13.335 17.862 0.132 0.14 19.553 48.81-5.302 78.848zM956.291 451.108c-1.683-15.535-16.179-27.963-31.714-27.963h-12.036c-15.663 0-26.406 12.428-24.08 27.831 0 0 22.265 94.112-29.257 169.068-51.393 74.956-172.176 62.138-172.176 62.138-15.921-0.258-28.482 11.652-28.482 27.187v13.853c0 15.663 12.56 28.482 27.963 28.739 0 0 125.827 11.52 211.527-70.814 85.959-82.208 58.254-230.039 58.254-230.039zM427.863 434.407c-141.497-19.937-245.575-111.723-232.497-205.19s138.513-153.014 280.009-133.21c141.62 19.937 245.701 111.716 232.497 205.185-13.076 93.475-138.519 153.154-280.009 133.217zM449.218 121.50999999999999c-84.142-16.311-163.634 28.091-177.478 99.42-13.853 71.199 43.108 142.271 127.383 158.582 84.142 16.311 163.634-28.091 177.478-99.42 13.853-71.199-43.108-142.271-127.383-158.582zM358.866 263.523c-25.889-12.036-39.483-37.933-30.29-57.604s37.673-25.889 63.563-13.853 39.483 37.933 30.29 57.604c-9.193 19.811-37.673 26.021-63.563 13.853zM451.679 304.68899999999996c-14.237 0-25.889-11.778-25.889-26.281s11.52-26.281 25.889-26.281c14.237 0 25.889 11.778 25.889 26.281s-11.646 26.281-25.889 26.281z"  horiz-adv-x="1024" />

    
    <glyph glyph-name="bb-website" unicode="&#59108;" d="M904.07 685.722L577.999 873.816C559.066 884.934 536.3 891.5 511.999 891.5c-24.3 0-47.067-6.566-66.623-18.021L120.541 686.0509999999999c-39.743-23.238-66.018-65.701-66.03-114.301v-375.516c0.018-48.601 26.299-91.06 65.421-113.957L446-105.81600000000003c18.933-11.118 41.699-17.684 66-17.684 24.3 0 47.067 6.566 66.623 18.022l324.836 187.427c39.743 23.238 66.018 65.701 66.03 114.301V571.765c-0.018 48.601-26.298 91.06-65.419 113.957zM739.478 538.155L564.092 182.60000000000002c-8.667-17.224-26.506-29.04-47.103-29.04-1.766 0-3.515 0.086-4.801 0.256-1.724-0.17-3.471-0.256-5.24-0.256-20.597 0-38.434 11.816-47.24 29.342L284.598 537.86c-3.79 7.285-5.931 15.563-5.931 24.343 0 29.175 23.649 52.825 52.824 52.825 20.949 0 39.047-12.193 47.728-30.184l132.562-269.129L644.418 585.15c8.669 17.323 26.578 29.216 47.268 29.216 8.492 0 16.515-2.004 23.319-5.425l0.309-0.137c17.499-8.607 29.541-26.612 29.541-47.429 0-8.453-1.987-16.442-5.377-23.22z"  horiz-adv-x="1024" />

    
    <glyph glyph-name="bb-feedback" unicode="&#59007;" d="M471.356965 392.435347a40.898652 40.898652 0 1 1 81.797304 0 40.898652 40.898652 0 1 1-81.797304 0ZM354.284573 392.435347a40.898652 40.898652 0 1 1 81.797304 0 40.898652 40.898652 0 1 1-81.797304 0ZM587.918123 392.435347a40.898652 40.898652 0 1 1 81.797304 0 40.898652 40.898652 0 1 1-81.797304 0ZM512.255617 896C230.566151 896 2.044933 667.478782 2.044933 385.789316c0-281.689466 228.521218-510.210684 510.210684-510.210684 281.689466 0 510.210684 228.521218 510.210684 510.210684 0 281.689466-228.521218 510.210684-510.210684 510.210684z m276.577134-544.974538c-17.89316-114.516226-109.915127-208.071892-224.431353-229.032452-57.258113-10.224663-111.96006-3.067399-160.015976 16.870694-13.292062 5.623565-28.117823 5.623565-40.898652-0.511233l-83.842237-40.387419c-11.758362-5.623565-24.539191 4.601098-21.471792 17.381928l23.516725 94.066899c3.067399 13.292062 0.511233 26.584124-7.157264 37.831253-35.275087 55.21318-51.634548 123.718422-39.364953 196.824763 20.449326 115.538692 114.004993 208.071892 230.054918 226.987519 190.689965 30.673989 353.262107-130.364453 323.610584-320.031952z"  horiz-adv-x="1024" />

    
    <glyph glyph-name="bb-bigV" unicode="&#58914;" d="M513.633 830.912c-246.898 0-447.103-200.205-447.103-447.09 0-246.898 200.205-447.378 447.103-447.378 246.885 0 447.103 200.217 447.103 447.103S760.794 830.912 513.633 830.912z m234.742-354.006L561.93 162.288c-11.329-18.885-31.304-30.489-53.159-30.489s-42.094 11.604-53.159 30.489L268.903 476.906c-17.544 29.687-8.095 68.535 21.316 86.343 29.399 17.807 67.445 8.095 85.265-21.579l133.023-224.504L641.793 541.6700000000001c17.544 29.675 55.853 39.387 85.265 21.579 29.412-18.083 38.861-56.655 21.317-86.343z"  horiz-adv-x="1024" />

    
    <glyph glyph-name="bb-updownsort" unicode="&#58929;" d="M392.692 793.764c-13.658 13.662-30.732 20.489-47.807 20.489-6.827 0-13.658-3.416-20.486-3.416h-3.416c-10.246-6.828-17.074-13.659-23.905-20.486L20.487 513.759c-27.317-27.32-27.317-68.292 0-92.197 13.662-13.658 30.736-20.486 47.806-20.486 17.074 0 34.148 6.828 47.807 20.486l167.321 167.321v-566.84c0-37.561 30.732-64.877 64.881-64.877 34.145 0 64.88 30.736 64.88 64.877V742.545c0 17.075-6.831 37.56-20.49 51.219z m611.235-443.91c-13.662 13.662-30.735 20.486-47.81 20.486s-34.148-6.824-47.811-20.486L737.581 179.12099999999998v566.84c0 37.56-30.736 64.877-64.884 64.877-34.148 0-64.885-30.732-64.885-64.877v-727.338c0-37.559 30.736-64.877 64.885-64.877 17.073 0 34.147 6.832 47.81 20.494l280.001 280c30.729 27.319 30.729 68.289 3.419 95.614z"  horiz-adv-x="1024" />

    
    <glyph glyph-name="bb-outdate" unicode="&#59080;" d="M10.040889 786.285714L0 784.615619c20.077714-177.359238 92.025905-344.677587 209.147937-483.559619 115.456-135.533714 266.040889-232.569905 436.707555-282.770286 0 0 1.674159 8.374857 3.348318 8.374857C299.503746 128.723302 50.196317 426.548825 10.040889 786.285714zM1022.329905 1.552253999999948c-90.351746-11.715048-180.707556-10.036825-269.385143 3.344254l-1.674159-10.032762c48.522159-8.378921 97.048381-11.715048 145.566476-11.715048 41.825524 0 83.659175 3.336127 127.162921 8.366731l-1.670095 10.036825zM896.837079 63.45955600000002c35.137016 0 71.94819 1.674159 108.759365 5.022476l-1.666031 10.032762c-36.819302-3.34019-73.626413-6.684444-108.763429-6.684445C485.229714 71.83441300000004 138.873905 379.69676200000004 88.681651 786.285714l-8.36673-1.670095c50.196317-411.611429 399.896381-721.156063 816.522158-721.156063zM529.550222 534.625524c-12.003556-18.468571-20.813206-28.546032-26.416762-30.244572-3.523048-0.658286-7.407746 0.24381-11.666285 2.702223L404.21181 557.462349c-7.513397 4.335746-9.130667 10.195302-4.855873 17.598984l30.862222 53.463365 104.740571-60.476952 37.371937 64.735492-123.741461 71.440254-5.046857-8.744635 114.492953-66.100825-27.184762-47.079619-95.483937 55.13346 14.559492 25.213968-9.252571 5.339429-51.541334-89.266794c-6.989206-12.109206-4.542984-21.589333 7.338667-28.444444l92.468826-53.390222c6.38781-3.689651 12.409905-4.77054 18.074412-3.254858 6.525968 2.503111 16.461206 13.498921 29.813842 32.995556l-7.277715 8.001016z m126.931302-54.670222c-0.26819 13.003175-2.133333 28.797968-5.595429 47.396571l-10.114032-0.442921c3.214222-17.993143 4.831492-33.950476 4.872127-47.867936l10.837334 0.914286z m7.582476-37.331302c-2.718476-4.705524-6.651937-5.566984-11.808508-2.588444-4.486095 2.584381-11.755683 7.078603-21.800635 13.482666l-3.295492-9.979936 23.531683-13.592381c9.077841-5.237841 16.11581-3.547429 21.093587 5.083428l44.55619 77.169778 25.213969-14.559492 5.241904 9.077841-25.222095 14.559492 16.20927 28.082794-9.073778 5.237841-16.205206-28.074666-62.553397 36.10819-5.233778-9.081905 62.541207-36.10819-43.194921-74.817016z m-16.867556-28.818286a2113.263746 2113.263746 0 0 0-33.763555 19.935492c-9.898667 6.164317-17.249524 12.056381-22.081016 17.680254-4.018794 5.45727-6.761651 11.975111-8.212317 19.541334-0.727365 3.405206-1.763556 6.018032-3.100445 7.834412l36.311365 62.878477-33.96673 19.614476-5.046857-8.744635 25.388698-14.66108-31.061333-53.792507c-8.309841 1.657905-21.589333-2.190222-39.830349-11.524064l3.303619-10.207492c19.277206 10.097778 31.211683 13.815873 35.811555 11.162413 2.352762-1.357206 3.807492-4.140698 4.368254-8.350477 1.755429-9.382603 5.575111-17.127619 11.475302-23.21473 5.575111-5.607619 14.153143-11.983238 25.730032-19.114666a2659.299556 2659.299556 0 0 1 31.06946-18.391365l35.303619-20.378413 7.623111 8.151365-17.363301 9.130667-21.959112 12.450539z m-8.578031 154.01854c-2.584381 13.145397-7.094857 27.713016-13.55581 43.698794l-9.715809-2.462477c6.651937-16.692825 10.951111-31.362032 12.921904-43.999492l10.349715 2.763175z m231.927873-103.41181l-44.653715-77.336381c-15.02273-25.242413-33.430349-42.496-55.198476-51.740444l3.470222-10.296889c19.728254 8.041651 37.160635 22.564571 52.276826 43.576889l35.640889-20.577524-20.870095-36.148825c-3.551492-6.164317-7.805968-7.826286-12.730921-4.973714-3.145143 1.808254-8.903111 5.286603-17.298286 10.42692l-2.690032-10.105905 18.155683-10.479746c9.081905-5.237841 16.400254-3.039492 21.963175 6.595048l75.227428 130.295873-53.292698 30.764698z m-3.612445-107.975111l-34.970412 20.191492 1.824508 2.755048 17.566476 30.427429 34.795682-20.085842-19.216254-33.288127z m-10.731682 61.785397l18.635174 32.276318 34.80381-20.093969-18.635175-32.276317-34.803809 20.093968zM698.61181 376.279365l4.319492-9.220063c14.027175 3.856254 27.790222 9.963683 41.276952 18.310095l-5.424762 8.066032c-13.186032-8.082286-26.575238-13.795556-40.171682-17.156064z m39.842539 36.400762l-13.287619 7.671873-4.847746-8.411429 78.68546-45.421714 4.847746 8.403302-12.105142 6.989206 42.902349 74.309079 11.264-6.501587 4.949333 8.569905-11.259936 6.497524 11.255873 19.504762-8.740572 5.05092-11.255873-19.504762-35.811555 20.679111 11.45092 19.833905-8.744635 5.050921-11.45092-19.833905-11.60127 6.688508-4.941206-8.569905 11.593142-6.696635-42.902349-74.309079z m44.556191-25.721905l-35.811556 20.670984 11.162413 19.330032 35.807492-20.670984-11.158349-19.330032z m15.912635 27.570794l-35.807492 20.670984 10.963301 18.996825 35.811556-20.670984-10.967365-18.996825z m-8.821842 67.40927l35.807492-20.670984-11.255873-19.500699-35.815619 20.670984 11.264 19.500699z m-18.777396-144.729397c0.207238 11.239619-0.812698 24.084317-3.080127 38.538159l-9.683302-0.459175c1.877333-15.136508 2.608762-28.103111 2.186159-38.92419l10.57727 0.845206z"  horiz-adv-x="1024" />

    
    <glyph glyph-name="bb-bili" unicode="&#58966;" d="M234.908525 886.343805a80.468288 80.468288 0 0 0 68.398044 0 167.374038 167.374038 0 0 0 41.84351-30.577949l160.936576-140.819503H621.156306L782.092881 855.765856a168.983404 168.983404 0 0 0 41.84351 30.577949 80.468288 80.468288 0 0 0 107.022823-66.788678 80.468288 80.468288 0 0 0-17.703024-53.913753 449.817728 449.817728 0 0 0-35.406046-32.187315 232.553351 232.553351 0 0 0-22.531121-18.507706h100.58536a170.59277 170.59277 0 0 0 118.288383-53.10907A171.397453 171.397453 0 0 0 1128.106519 543.5489v-462.692655a325.896565 325.896565 0 0 0-4.023415-70.00741 178.639599 178.639599 0 0 0-80.468288-112.655603 173.006819 173.006819 0 0 0-92.53853-25.749852H212.377404a341.18554 341.18554 0 0 0-72.421459 4.023415 177.834916 177.834916 0 0 0-111.046237 80.468287A172.202136 172.202136 0 0 0 1.550491 49.473613V507.33817A360.497929 360.497929 0 0 0 1.550491 574.126849a177.030233 177.030233 0 0 0 160.936575 143.233552h105.413457c-16.89834 12.070243-31.382632 26.554535-46.671607 39.429461a80.468288 80.468288 0 0 0-25.749852 65.983996A80.468288 80.468288 0 0 0 234.908525 886.343805M216.400819 574.126849a80.468288 80.468288 0 0 1-63.569948-57.937167 108.632188 108.632188 0 0 1 0-30.577949v-380.615001a80.468288 80.468288 0 0 1 55.523119-80.468288 106.21814 106.21814 0 0 1 34.601364-5.63278h654.207179a80.468288 80.468288 0 0 1 76.444873 47.47629 112.655603 112.655603 0 0 1 8.046829 53.10907v354.060465a135.186723 135.186723 0 0 1 0 38.624779 80.468288 80.468288 0 0 1-52.304387 54.718435 129.553943 129.553943 0 0 1-49.890338 7.242146H254.220914a268.764081 268.764081 0 0 1-37.820095 0z m0 0M348.368811 448.59632a80.468288 80.468288 0 0 0 55.523118-18.507706 80.468288 80.468288 0 0 0 28.163901-59.546533v-80.468287a80.468288 80.468288 0 0 0-16.093658-51.499705 80.468288 80.468288 0 0 0-131.967992 9.656195 104.608774 104.608774 0 0 0-10.460877 54.718436v80.468287a80.468288 80.468288 0 0 0 70.00741 67.593362z m416.021047 0a80.468288 80.468288 0 0 0 86.101068-75.64019v-80.468288a94.147897 94.147897 0 0 0-12.070243-53.10907 80.468288 80.468288 0 0 0-132.772675 0 95.757262 95.757262 0 0 0-12.874926 57.132485v80.468287a80.468288 80.468288 0 0 0 70.00741 70.812093z m0 0"  horiz-adv-x="1129" />

    
    <glyph glyph-name="bb-viewdetail" unicode="&#58889;" d="M251.2 262.79999999999995c-16.3 0-29.5-13.2-29.5-29.5s13.2-29.5 29.5-29.5h144.2c-1.1 9.7-1.6 19.5-1.6 29.5s0.6 19.8 1.6 29.5H251.2z m241.2 177.1H251.2c-16.3 0-29.5-13.2-29.5-29.5s13.2-29.5 29.5-29.5h187.3c14.9 22.3 33.1 42.2 53.9 59zM249.3 26.700000000000045c-65.2 0-91.7 19.8-91.7 85V640c0 65.2 15.5 95 80.7 95H669c65.2 0 78.9-29.8 78.9-95v-156.2c21-7.4 40.8-17.4 59-29.6V676c0 65.2-52.9 118.1-118.1 118.1H216.6c-65.2 0-118.1-52.9-118.1-118.1v-590.3c0-65.2 52.9-118.1 118.1-118.1h442.7c-63.2 0-121.3 22.1-166.9 59H249.3z m435.6 560.8c0 16.3-13.2 29.5-29.5 29.5H251.2c-16.3 0-29.5-13.2-29.5-29.5s13.2-29.5 29.5-29.5h404.1c16.3 0 29.6 13.2 29.6 29.5z m230-570l-91 91c26.4 34.7 42 78 42 124.9 0 114.1-92.5 206.6-206.6 206.6s-206.6-92.5-206.6-206.6 92.5-206.6 206.6-206.6c46.9 0 90.2 15.7 124.9 42l91-91c11-11 28.7-11 39.7 0 10.9 10.9 10.9 28.7 0 39.7z m-255.6 68.3c-81.5 0-147.6 66.1-147.6 147.6S577.8 381 659.3 381s147.6-66.1 147.6-147.6c0-81.6-66.1-147.6-147.6-147.6z"  horiz-adv-x="1024" />

    
    <glyph glyph-name="bb-register" unicode="&#58886;" d="M874.030545 802.909091h-51.712V896h-103.470545v-93.090909H305.152V896H201.681455v-93.090909h-51.665455C93.090909 802.909091 46.545455 766.138182 46.545455 709.818182v-735.418182C46.545455-81.91999999999996 93.090909-128 149.969455-128h724.06109C930.909091-128 977.454545-81.91999999999996 977.454545-25.600000000000023V709.818182c0 56.32-46.545455 93.090909-103.424 93.090909zM512 640c85.317818 0 155.136-69.12 155.136-153.6 0-84.48-69.818182-153.6-155.136-153.6-85.317818 0-155.136 69.12-155.136 153.6 0 84.48 69.818182 153.6 155.136 153.6zM822.318545 11.636363999999958H201.681455v56.785454C201.681455 181.94618200000002 408.576 244.36363600000004 512 244.36363600000004c103.424 0 310.318545-62.417455 310.318545-175.941818V11.636363999999958z"  horiz-adv-x="1024" />

    
    <glyph glyph-name="bb-youku" unicode="&#58927;" d="M441.936842 890.610526c51.2 8.084211 105.094737 5.389474 158.989474-2.694737 99.705263-18.863158 191.326316-64.673684 264.08421-134.736842 67.368421-61.978947 113.178947-145.515789 137.431579-231.747368 26.947368-91.621053 24.252632-191.326316-2.694737-282.947368-10.778947-37.726316-26.947368-75.452632-45.810526-107.789474-5.389474-10.778947-13.473684-21.557895-21.557895-32.336842 2.694737 8.084211 5.389474 13.473684 8.084211 21.557894 5.389474 18.863158 2.694737 37.726316-5.389474 53.894737-8.084211 18.863158-26.947368 35.031579-45.810526 43.11579-21.557895 8.084211-45.810526 5.389474-64.673684-5.389474-8.084211-2.694737-13.473684-10.778947-21.557895-16.168421 29.642105 45.810526 48.505263 97.010526 53.894737 150.905263 8.084211 59.284211-2.694737 121.263158-24.252632 177.852632-21.557895 48.505263-53.894737 94.315789-91.621052 126.652631-37.726316 35.031579-86.231579 59.284211-134.736843 72.757895-61.978947 16.168421-126.652632 16.168421-188.631578 0-35.031579-10.778947-70.063158-26.947368-102.4-45.810526-35.031579-24.252632-64.673684-53.894737-88.926316-86.231579 2.694737 8.084211 5.389474 16.168421 5.389473 24.252631 2.694737 24.252632-8.084211 48.505263-24.252631 64.673685-13.473684 8.084211-32.336842 16.168421-51.2 16.168421-18.863158 2.694737-40.421053-2.694737-56.589474-16.168421l-10.778947-10.778948c24.252632 37.726316 53.894737 70.063158 86.231579 99.705263 75.452632 64.673684 169.768421 107.789474 266.778947 121.263158zM51.2 602.273684c8.084211 16.168421 16.168421 32.336842 24.252632 45.810527 0-8.084211-2.694737-13.473684-5.389474-21.557895-2.694737-24.252632 5.389474-48.505263 21.557895-67.368421 10.778947-13.473684 26.947368-21.557895 43.115789-24.252632 21.557895-2.694737 43.115789 0 61.978947 13.473684 2.694737 2.694737 8.084211 5.389474 10.778948 8.084211-10.778947-16.168421-18.863158-35.031579-24.252632-53.894737-24.252632-64.673684-29.642105-137.431579-10.778947-204.8 10.778947-45.810526 32.336842-88.926316 59.28421-126.652632 35.031579-45.810526 78.147368-80.842105 129.347369-105.094736 53.894737-26.947368 113.178947-37.726316 172.463158-32.336842 51.2 2.694737 102.4 18.863158 148.210526 45.810526 40.421053 21.557895 75.452632 53.894737 105.094737 91.621052 0-5.389474-2.694737-10.778947-2.694737-16.168421-2.694737-16.168421-2.694737-32.336842 2.694737-48.505263 8.084211-21.557895 26.947368-37.726316 48.505263-45.810526 26.947368-10.778947 61.978947-2.694737 83.536842 18.863158 2.694737 2.694737 5.389474 2.694737 8.084211 5.389474-40.421053-56.589474-91.621053-105.094737-150.905263-140.126316-67.368421-40.421053-142.821053-64.673684-220.968422-70.063158-48.505263-2.694737-97.010526 0-145.515789 8.08421-99.705263 21.557895-194.021053 72.757895-266.778947 145.51579-67.368421 70.063158-113.178947 158.989474-132.042106 253.305263-10.778947 53.894737-13.473684 105.094737-8.08421 156.294737 8.084211 56.589474 24.252632 113.178947 48.505263 164.378947zM99.705263 680.421053c16.168421 13.473684 37.726316 21.557895 59.284211 18.863158 18.863158-2.694737 37.726316-10.778947 48.505263-24.252632 16.168421-16.168421 26.947368-40.421053 24.252631-64.673684 0-8.084211-2.694737-16.168421-5.389473-24.252632-5.389474-10.778947-10.778947-18.863158-18.863158-26.947368-2.694737-2.694737-8.084211-5.389474-10.778948-8.084211-16.168421-13.473684-40.421053-18.863158-61.978947-13.473684-16.168421 2.694737-32.336842 10.778947-43.115789 24.252632-16.168421 16.168421-24.252632 43.115789-21.557895 67.368421 0 8.084211 2.694737 13.473684 5.389474 21.557894 2.694737 8.084211 8.084211 13.473684 13.473684 18.863158l10.778947 10.778948z m727.578948-471.578948c18.863158 10.778947 43.115789 10.778947 64.673684 5.389474 21.557895-8.084211 37.726316-21.557895 45.810526-43.11579 8.084211-16.168421 8.084211-35.031579 5.389474-53.894736-2.694737-8.084211-5.389474-13.473684-8.084211-21.557895-2.694737-2.694737-5.389474-8.084211-8.08421-10.778947-2.694737-2.694737-5.389474-2.694737-8.084211-5.389474-21.557895-21.557895-53.894737-29.642105-83.536842-18.863158-21.557895 8.084211-40.421053 24.252632-48.505263 45.810526-5.389474 16.168421-8.084211 32.336842-2.694737 48.505263 2.694737 5.389474 2.694737 10.778947 2.694737 16.168421l16.168421 24.252632c8.084211 2.694737 16.168421 10.778947 24.252632 13.473684zM363.789474 613.052632c21.557895 18.863158 51.2 24.252632 78.147368 13.473684 10.778947-2.694737 21.557895-10.778947 32.336842-18.863158 67.368421-45.810526 132.042105-88.926316 199.410527-132.042105 10.778947-8.084211 21.557895-16.168421 32.336842-21.557895 16.168421-8.084211 29.642105-24.252632 35.031579-40.421053 5.389474-16.168421 8.084211-37.726316 0-53.894737-5.389474-16.168421-18.863158-32.336842-32.336843-40.421052-16.168421-8.084211-29.642105-18.863158-43.115789-26.947369-67.368421-45.810526-137.431579-91.621053-204.8-137.431579-16.168421-10.778947-37.726316-16.168421-56.589474-13.473684-21.557895 2.694737-40.421053 16.168421-51.2 32.336842-13.473684 18.863158-16.168421 40.421053-10.778947 61.978948 5.389474 18.863158 16.168421 37.726316 32.336842 48.505263 51.2 35.031579 102.4 67.368421 153.6 102.4-45.810526 32.336842-94.315789 61.978947-140.126316 94.315789-5.389474 5.389474-13.473684 8.084211-18.863158 13.473685-16.168421 13.473684-26.947368 32.336842-29.642105 53.894736-5.389474 21.557895 5.389474 48.505263 24.252632 64.673685z"  horiz-adv-x="1024" />

    
    <glyph glyph-name="bb-kuaishou" unicode="&#59413;" d="M1.137664 384c0 117.76-2.56 238.08 0 355.84C3.697664 801.28 36.977664 847.36 90.737664 878.08 124.017664 893.44 154.737664 896 185.457664 896H845.937664c61.44 0 110.08-23.04 145.92-71.68 20.48-23.04 33.28-51.2 33.28-81.92v-714.24c0-61.44-35.84-104.96-89.6-135.68-33.28-17.92-64-17.92-97.28-17.92H164.977664c-66.56 0-112.64 33.28-145.92 94.72-15.36 25.6-17.92 53.76-17.92 81.92V384zM420.977664 791.04c-35.84 0-69.12-2.56-99.84-23.04-43.52-28.16-74.24-71.68-84.48-120.32-12.8-58.88-12.8-120.32 20.48-176.64 28.16-43.52 61.44-81.92 115.2-89.6 30.72-5.12 64-2.56 94.72 0 84.48 5.12 166.4 10.24 250.88 12.8 74.24 5.12 138.24 56.32 143.36 122.88 2.56 38.4 0 76.8-20.48 112.64-17.92 30.72-43.52 51.2-76.8 61.44-20.48 5.12-43.52 10.24-64 5.12-23.04-5.12-46.08-20.48-66.56-35.84-25.6-17.92-28.16-17.92-35.84 12.8 0 2.56-2.56 7.68-2.56 10.24-38.4 64-87.04 104.96-174.08 107.52z m279.04-422.4c-74.24-7.68-153.6-15.36-235.52-23.04-7.68 0-17.92-10.24-23.04-20.48-2.56-5.12 2.56-17.92 7.68-23.04 23.04-23.04 43.52-46.08 69.12-66.56 40.96-35.84 40.96-112.64 2.56-148.48-5.12-5.12-12.8-12.8-17.92-20.48-2.56-5.12 0-15.36 2.56-17.92 33.28-23.04 66.56-28.16 107.52-17.92 56.32 15.36 112.64 25.6 168.96 38.4 33.28 7.68 66.56 30.72 61.44 71.68-2.56 23.04-2.56 48.64-2.56 71.68 0 20.48-10.24 30.72-28.16 28.16-33.28-5.12-69.12-12.8-99.84-20.48-25.6-7.68-15.36-30.72-15.36-48.64 0-15.36 12.8-17.92 28.16-17.92 7.68 0 17.92-2.56 20.48-10.24 2.56-7.68-5.12-20.48-12.8-23.04-15.36-5.12-30.72-5.12-46.08-7.68-15.36-2.56-25.6 7.68-25.6 23.04v81.92c0 20.48 12.8 35.84 33.28 40.96l122.88 23.04c15.36 2.56 23.04 10.24 23.04 25.6 2.56 33.28-10.24 53.76-46.08 58.88-28.16-2.56-58.88-2.56-94.72 2.56zM152.177664 181.76c0-28.16-2.56-56.32 2.56-84.48 5.12-33.28 17.92-64 56.32-76.8 25.6-7.68 51.2-23.04 76.8-28.16 30.72-7.68 61.44-12.8 94.72-12.8 10.24 0 23.04 7.68 28.16 15.36 33.28 40.96 64 79.36 94.72 120.32 17.92 20.48 12.8 61.44-5.12 81.92-25.6 25.6-53.76 53.76-81.92 79.36-10.24 10.24-20.48 20.48-33.28 23.04-48.64 10.24-97.28 17.92-148.48 25.6-56.32 10.24-74.24-12.8-84.48-71.68-5.12-23.04 0-48.64 0-71.68zM364.657664 583.6800000000001c2.56 53.76 20.48 87.04 61.44 110.08 30.72 17.92 81.92 0 104.96-33.28 23.04-33.28 28.16-69.12 23.04-107.52-5.12-38.4-28.16-69.12-66.56-81.92-33.28-12.8-69.12-7.68-94.72 23.04-20.48 28.16-28.16 56.32-28.16 89.6z m445.44-33.28c2.56-23.04-7.68-43.52-25.6-64-20.48-23.04-53.76-23.04-74.24-2.56-33.28 35.84-38.4 81.92-10.24 115.2 17.92 23.04 38.4 30.72 64 23.04 33.28-12.8 48.64-28.16 48.64-61.44-2.56 0-2.56-2.56-2.56-10.24z m-448-409.6v-71.68c0-17.92-7.68-25.6-23.04-23.04-38.4 7.68-74.24 15.36-110.08 25.6-10.24 2.56-17.92 23.04-20.48 35.84-2.56 43.52-5.12 87.04-2.56 130.56 0 30.72 15.36 38.4 46.08 33.28 25.6-5.12 48.64-10.24 74.24-15.36 23.04-5.12 38.4-23.04 38.4-46.08-2.56-23.04-2.56-46.08-2.56-69.12z"  horiz-adv-x="1025" />

    
    <glyph glyph-name="bb-meipai" unicode="&#59460;" d="M1012.630431 659.88017c-0.230397 70.603812-26.956423 129.918181-79.410088 176.919123C889.624153 875.838746 837.861678 895.780867 779.187299 895.857666 602.114578 896.113662 424.990658 895.934465 247.892338 895.934465c-21.938893 0-43.416992-1.791975-65.125489-6.579108a221.820895 221.820895 0 0 1-88.369963-40.805829C36.797693 804.620543 3.722956 745.894965 1.367789 673.575978-1.268974 592.348315 0.778997 510.941455 0.804597 429.636993c-0.076799-1.791975-0.230397-3.609549-0.230397-5.401524L0.471801 114.37740699999995c0-16.332571 2.201569-32.383547 5.708721-48.255325 23.218875-104.856132 119.26873-182.295048 226.761625-182.371847 181.885454-0.127998 363.770907-1.203183 545.656361 0.511993 97.585834 0.895987 168.496841 48.58812 212.14423 135.780499 14.745394 29.413988 21.682896 61.259942 21.734095 94.181082 0.204797 91.237123-0.0256 182.499845-0.076799 273.711368 0.102399 2.687962 0.281596 5.427124 0.281597 8.115086 0 87.934769 0.204797 175.895137-0.0512 263.829907z m-87.038781-311.598838c-0.127998-50.303296-0.153598-100.580992-0.255997-150.884288 0-2.995158 0.0256-6.041515-0.409594-9.011073-2.457566-16.742166-18.252544-23.910065-32.025152-14.131003-27.698812 19.737324-55.116028 39.781843-82.661242 59.672765-22.16929 15.999776-44.31298 31.999552-66.507869 47.973728-2.099171 1.535978-4.30074 2.918359-7.654293 5.145528 0-13.619009 0.204797-25.855638-0.0256-38.066667-1.151984-54.424838-43.724188-97.381037-97.790631-97.534634-139.134052-0.435194-278.268104 0.307196-417.402156-0.358395-46.284152-0.204797-90.443534 30.437974-100.324995 84.29962-0.69119 3.788747-0.435194 7.807891-0.435194 11.699036l-0.460794 186.109394 0.127998 87.601974a95.870658 95.870658 0 0 0 96.766646 96.613047c140.644431-0.127998 281.263262-0.255996 421.907693-0.102398 50.456894 0.051199 97.12504-43.288994 97.560234-97.17624 0.102399-12.953419-0.0256-25.881238 0.051199-38.860256 0.0256-1.587178-0.972786-3.865546 1.535979-4.505537 1.766375-0.460794 3.507151 0.230397 4.96633 1.484779 22.041291 19.097333 46.642547 34.789913 70.01502 52.095271 25.753239 19.020534 51.762475 37.631473 77.541315 56.575208 7.423896 5.452724 15.00139 9.395068 24.012463 4.454338 8.934275-4.838332 11.724636-13.081417 11.724636-22.758082 0.0256-48.792917 0.102399-97.585834 0.179198-146.353151-0.127998-24.575656-0.358395-49.27931-0.435194-73.982964zM543.952193 399.250218a110564.442498 110564.442498 0 0 1-213.731408 124.235061c-12.748622 7.423896-23.142076 1.894373-23.270074-12.87662-0.076799-8.268684-0.102399-16.537368-0.102399-24.831652 0-24.831652 0.255996-49.663305 0.358395-74.494957l-0.435194-150.833088c0-1.510379 0.255996-2.995158 0.511993-4.479938 1.663977-9.369469 8.985474-13.875006 17.586954-10.572652 3.046357 1.151984 5.862318 2.969558 8.703878 4.633536 24.140462 13.977404 48.280924 27.954809 72.370187 42.009011 39.090653 22.83488 78.155706 45.72096 117.220759 68.60704h-0.0256a10.72625 10.72625 0 0 1 4.838332 2.662363l0.127999 0.102398 0.358395 0.460794a1.40798 1.40798 0 0 0 0.153597 0.204797l0.0512 0.0256a3.148756 3.148756 0 0 1 0.511993 0.051199l0.127998 0.025599a2.252768 2.252768 0 0 1 0.435194 0.0512l0.179197 0.051199 0.358395 0.076799a1.254382 1.254382 0 0 1 0.179198 0.076799l0.307195 0.102398 0.255997 0.127999 0.230396 0.127998 0.230397 0.204797 0.179198 0.153598a1.45918 1.45918 0 0 1 0.307195 0.383995l0.076799 0.076798a2.278368 2.278368 0 0 1 0.204798 0.435194v-0.025599l2.457565 1.100784a18.226945 18.226945 0 0 1 6.732706 4.377539v-0.153598c4.96633 2.15037 10.163058 4.070343 10.751849 10.675051 3.763147 8.755077-1.766375 13.439812-8.243084 17.228558z m-24.98525-38.373862c1.254382 0.0256 2.790361-0.255996 4.044743-0.255997-1.228783 0-2.790361 0.281596-4.044743 0.255997z"  horiz-adv-x="1024" />

    
    </font>
</defs>
</svg>
